<?xml version="1.0" standalone="no"?><!DOCTYPE svg PUBLIC "-//W3C//DTD SVG 1.1//EN" "http://www.w3.org/Graphics/SVG/1.1/DTD/svg11.dtd"><svg t="1593415053973" class="icon" viewBox="0 0 1024 1024" version="1.1" xmlns="http://www.w3.org/2000/svg" p-id="2375" xmlns:xlink="http://www.w3.org/1999/xlink" width="200" height="200"><defs><style type="text/css"></style></defs><path d="M853.333333 1024H170.666667a170.666667 170.666667 0 0 1-170.666667-170.666667V341.333333a170.666667 170.666667 0 0 1 170.666667-170.666666h113.777777V56.888889c0-37.944889 18.944-56.888889 56.888889-56.888889s56.888889 18.944 56.888889 56.888889v113.777778h227.555556V56.888889c0-37.944889 18.944-56.888889 56.888889-56.888889s56.888889 18.944 56.888889 56.888889v113.777778h113.777777a170.666667 170.666667 0 0 1 170.666667 170.666666v512a170.666667 170.666667 0 0 1-170.666667 170.666667z m56.888889-682.666667a56.888889 56.888889 0 0 0-56.888889-56.888889h-113.777777v56.888889c0 37.888-18.944 56.888889-56.888889 56.888889s-56.888889-19.000889-56.888889-56.888889V284.444444H398.222222v56.888889c0 37.888-18.944 56.888889-56.888889 56.888889s-56.888889-19.000889-56.888889-56.888889V284.444444H170.666667a56.718222 56.718222 0 0 0-56.888889 56.888889v512a56.888889 56.888889 0 0 0 56.888889 56.888889h682.666666a56.888889 56.888889 0 0 0 56.888889-56.888889V341.333333z m-227.555555 455.111111H341.333333c-37.944889 0-56.888889-18.944-56.888889-56.888888s18.944-56.888889 56.888889-56.888889h341.333334c37.944889 0 56.888889 18.944 56.888889 56.888889s-18.944 56.888889-56.888889 56.888888z m0-227.555555H341.333333c-37.944889 0-56.888889-18.944-56.888889-56.888889s18.944-56.888889 56.888889-56.888889h341.333334c37.944889 0 56.888889 18.944 56.888889 56.888889s-18.944 56.888889-56.888889 56.888889z" fill="#CCCCCC" p-id="2376"></path></svg>