<?xml version="1.0" standalone="no"?><!DOCTYPE svg PUBLIC "-//W3C//DTD SVG 1.1//EN" "http://www.w3.org/Graphics/SVG/1.1/DTD/svg11.dtd"><svg class="icon" width="200px" height="200.00px" viewBox="0 0 1024 1024" version="1.1" xmlns="http://www.w3.org/2000/svg"><path  d="M295.722667 678.826667l48.384 48.554666 116.608-42.538666-122.581334-122.410667-42.410666 116.394667zM512 0C229.205333 0 0 229.248 0 512s229.205333 512 512 512c282.752 0 512-229.248 512-512S794.752 0 512 0z m-25.6 710.528l-0.298667-0.341333a15.232 15.232 0 0 1-4.778666 2.944l-235.818667 86.058666a16.725333 16.725333 0 0 1-17.664-4.010666 16.64 16.64 0 0 1-3.882667-17.621334l85.973334-235.733333a15.786667 15.786667 0 0 1 2.858666-4.736l-0.170666-0.213333 211.797333-211.754667 41.898667 41.813333-165.930667 165.632a12.970667 12.970667 0 0 0-3.882667 9.472c0 3.456 1.194667 6.869333 3.882667 9.514667a13.44 13.44 0 0 0 19.072 0l165.845333-165.546667 52.096 52.010667-165.12 164.906667a13.568 13.568 0 0 0 0 18.986666 13.653333 13.653333 0 0 0 19.114667 0.042667l165.034667-164.906667s24.277333 24.234667 41.685333 41.770667L486.4 710.528z m296.917333-296.789333l-66.090666 66.048c-33.962667-33.92-112.853333-112.853333-173.738667-173.610667l66.176-66.133333a61.013333 61.013333 0 0 1 86.101333 0l87.552 87.594666a61.098667 61.098667 0 0 1 0 86.101334z"  /></svg>