<?xml version="1.0" standalone="no"?><!DOCTYPE svg PUBLIC "-//W3C//DTD SVG 1.1//EN" "http://www.w3.org/Graphics/SVG/1.1/DTD/svg11.dtd"><svg class="icon" width="200px" height="200.00px" viewBox="0 0 1024 1024" version="1.1" xmlns="http://www.w3.org/2000/svg"><path  d="M1012.333568 554.666667a85.2992 85.2992 0 1 1-147.729067-85.3504A85.2992 85.2992 0 1 1 1012.333568 554.666667z m-88.354133-182.1184a85.316267 85.316267 0 0 1-127.931734-73.898667 85.282133 85.282133 0 1 1 170.581334 0 85.2992 85.2992 0 0 1-42.6496 73.898667z m-198.741334-144.725334a85.2992 85.2992 0 0 1-73.864533-42.666666 85.469867 85.469867 0 0 1 0-85.3504 85.2992 85.2992 0 1 1 147.729067 85.3504 85.265067 85.265067 0 0 1-73.864534 42.666666zM512.007168 1024a85.2992 85.2992 0 0 1-85.282133-85.333333 85.333333 85.333333 0 0 1 42.632533-73.898667 85.1968 85.1968 0 0 1 85.2992 0A85.3504 85.3504 0 0 1 512.007168 1024z m0-853.3504a85.316267 85.316267 0 0 1-85.282133-85.333333 85.282133 85.282133 0 1 1 170.581333 0 85.333333 85.333333 0 0 1-85.2992 85.333333zM298.776235 966.843733a85.333333 85.333333 0 0 1 0-170.683733 85.384533 85.384533 0 0 1 0 170.683733z m0-739.0208a85.367467 85.367467 0 0 1-42.632534-159.249066 85.265067 85.265067 0 0 1 116.497067 31.232 85.384533 85.384533 0 0 1-73.864533 128.017066z m-113.442134 144.725334a85.1968 85.1968 0 0 1-85.2992 0 85.3504 85.3504 0 0 1-31.214933-116.565334 85.282133 85.282133 0 0 1 159.163733 42.666667 85.333333 85.333333 0 0 1-42.6496 73.898667z m-25.924266 96.768A85.384533 85.384533 0 0 1 85.545301 597.333333a85.333333 85.333333 0 0 1 0-170.683733c30.481067 0 58.641067 16.264533 73.864534 42.666667z m-59.374934 182.101333a85.282133 85.282133 0 0 1 127.9488 73.915733A85.282133 85.282133 0 0 1 68.819968 768a85.384533 85.384533 0 0 1 31.214933-116.5824z m582.5536 156.177067a85.265067 85.265067 0 0 1 116.514134 31.232 85.3504 85.3504 0 0 1-31.214934 116.565333 85.265067 85.265067 0 0 1-116.514133-31.214933 85.384533 85.384533 0 0 1 31.214933-116.5824zM807.465301 682.666667a85.282133 85.282133 0 1 1 147.729067 85.333333 85.265067 85.265067 0 0 1-116.514133 31.232A85.367467 85.367467 0 0 1 807.465301 682.666667z"  /></svg>