<?xml version="1.0" standalone="no"?><!DOCTYPE svg PUBLIC "-//W3C//DTD SVG 1.1//EN" "http://www.w3.org/Graphics/SVG/1.1/DTD/svg11.dtd"><svg class="icon" width="200px" height="200.00px" viewBox="0 0 1024 1024" version="1.1" xmlns="http://www.w3.org/2000/svg"><path  d="M522.8544 118.6304c94.3616 0 172.1344 73.2672 183.9616 168.1408h111.1552C804.864 126.1568 676.7104 0 520.3968 0c-156.2624 0-284.3136 126.1568-297.472 286.7712h116.1216c11.5712-94.8736 89.4464-168.1408 183.808-168.1408z m273.9712 237.9776H227.072C158.208 356.608 102.4 413.9008 102.4 484.5056v411.5968C102.4 966.7584 158.208 1024 227.072 1024h569.856C865.8944 1024 921.6 966.7584 921.6 896.1024V484.608c0-70.6048-55.9104-128-124.7744-128z m-231.8336 344.7296v92.928c0 31.4368-24.8832 56.7808-55.3984 56.7808-30.6176 0-55.3472-25.4464-55.3472-56.7808v-91.5456a81.5616 81.5616 0 0 1-24.32-58.3168c0-44.6976 35.4304-81.0496 79.0016-81.0496s79.0016 36.352 79.0016 81.0496a83.2 83.2 0 0 1-22.9376 56.9344z"  /></svg>