<?xml version="1.0" standalone="no"?><!DOCTYPE svg PUBLIC "-//W3C//DTD SVG 1.1//EN" "http://www.w3.org/Graphics/SVG/1.1/DTD/svg11.dtd"><svg class="icon" width="200px" height="191.22px" viewBox="0 0 1071 1024" version="1.1" xmlns="http://www.w3.org/2000/svg"><path  d="M718.522182 776.192c-189.300364 133.911273-454.516364 105.518545-608.162909-65.117091-153.693091-170.635636-143.778909-425.797818 22.714182-585.029818C299.566545-33.233455 566.225455-42.728727 744.634182 104.261818c178.362182 147.037091 208.058182 400.756364 68.049454 581.818182l238.778182 228.305455a61.905455 61.905455 0 0 1 0 90.20509 68.887273 68.887273 0 0 1-94.301091 0l-238.638545-228.398545z m-14.894546-114.455273c132.608-132.421818 129.117091-342.295273-7.866181-470.574545-136.983273-128.279273-356.445091-127.162182-491.985455 2.513454s-136.704 339.595636-2.606545 470.621091c134.097455 131.072 353.466182 134.423273 491.892363 7.540364 3.118545-3.723636 6.656-7.121455 10.565818-10.100364z"  /></svg>