<?xml version="1.0" standalone="no"?><!DOCTYPE svg PUBLIC "-//W3C//DTD SVG 1.1//EN" "http://www.w3.org/Graphics/SVG/1.1/DTD/svg11.dtd"><svg t="1593415031246" class="icon" viewBox="0 0 1303 1024" version="1.1" xmlns="http://www.w3.org/2000/svg" p-id="1759" xmlns:xlink="http://www.w3.org/1999/xlink" width="254.4921875" height="200"><defs><style type="text/css"></style></defs><path d="M1058.23696337 729.22930661c0 19.01830318-5.09524597 36.67392376-13.33058639 52.19665065l-261.87195844-306.95896292L1042.06251889 237.00482013c10.13124516 16.76691529 16.17444445 36.43693544 16.17444448 57.70662586v434.51786063zM643.50761704 530.2184674L1003.96666577 199.79767293A99.00181957 99.00181957 0 0 0 954.55462646 186.11160469H332.46060761c-18.01110309 0-34.6595242 5.21374013-49.41203931 13.68606824L643.50761704 530.2184674z m100.48299631-19.96625524L660.57076744 586.74015286a25.06150184 25.06150184 0 0 1-34.12630016 1e-8L542.96537459 510.25221216 277.7755814 821.12148001c15.87820937 10.4274809 34.54103004 16.70766788 54.68502621 16.70766853h622.09401885c20.1439968 0 38.80681748-6.280187 54.68502684-16.70766853L743.99061334 510.25221216zM244.9527158 237.00482013A111.14746492 111.14746492 0 0 0 228.77827135 294.71144599v434.51786063c0 19.01830318 5.09524597 36.67392376 13.33058638 52.19665064l261.87195844-307.01821033L244.9527158 237.00482013z" fill="#44A8E1" p-id="1760"></path></svg>