<?xml version="1.0" standalone="no"?><!DOCTYPE svg PUBLIC "-//W3C//DTD SVG 1.1//EN" "http://www.w3.org/Graphics/SVG/1.1/DTD/svg11.dtd"><svg t="1593415154778" class="icon" viewBox="0 0 1024 1024" version="1.1" xmlns="http://www.w3.org/2000/svg" p-id="2497" xmlns:xlink="http://www.w3.org/1999/xlink" width="200" height="200"><defs><style type="text/css"></style></defs><path d="M638.2 148.3l-15.9 436.5c-0.4 9.8-4.3 18.4-11.6 25.6-7.4 7.2-16 10.8-25.8 10.8H439.2c-9.8 0-18.5-3.6-25.8-10.8-7.4-7.2-11.2-15.7-11.6-25.6l-16-436.5c-0.4-9.8 3-18.4 9.9-25.6 7.1-7.2 15.4-10.8 25.3-10.8h181.9c9.8 0 18.3 3.6 25.3 10.8 7 7.2 10.4 15.8 10 25.6z m-17.1 600.1v127.3c0 9.8-3.6 18.4-10.8 25.6S594.6 912 584.8 912H439.2c-9.8 0-18.4-3.6-25.6-10.8-7.2-7.2-10.8-15.7-10.8-25.6V748.4c0-9.8 3.6-18.4 10.8-25.6 7.2-7.2 15.7-10.8 25.6-10.8h145.4c9.8 0 18.4 3.6 25.6 10.8 7.3 7.2 10.9 15.8 10.9 25.6z" p-id="2498"></path></svg>