<?xml version="1.0" standalone="no"?><!DOCTYPE svg PUBLIC "-//W3C//DTD SVG 1.1//EN" "http://www.w3.org/Graphics/SVG/1.1/DTD/svg11.dtd"><svg class="icon" width="200px" height="200.00px" viewBox="0 0 1024 1024" version="1.1" xmlns="http://www.w3.org/2000/svg"><path  d="M792.132267 1024H231.8336A231.867733 231.867733 0 0 1 0 792.1664V231.8336A231.8336 231.8336 0 0 1 231.8336 0h560.298667A231.8336 231.8336 0 0 1 1024 231.8336v560.3328A231.867733 231.867733 0 0 1 792.132267 1024zM564.4288 312.900267c-54.9888 0-105.813333 17.681067-147.5584 47.4112L339.319467 282.7264H443.733333V200.738133H204.629333v238.216534h81.954134v-92.9792l71.953066 71.9872a252.8256 252.8256 0 0 0-49.2544 150.1184c0 140.6976 114.449067 255.010133 255.146667 255.010133 140.561067 0 255.010133-114.312533 255.010133-255.010133s-114.449067-255.1808-255.010133-255.1808z m-0.1024 428.305066a173.329067 173.329067 0 0 1-173.124267-173.124266 173.329067 173.329067 0 0 1 173.124267-173.056 173.226667 173.226667 0 0 1 173.090133 173.056 173.294933 173.294933 0 0 1-173.090133 173.124266z"  /></svg>