<?xml version="1.0" standalone="no"?><!DOCTYPE svg PUBLIC "-//W3C//DTD SVG 1.1//EN" "http://www.w3.org/Graphics/SVG/1.1/DTD/svg11.dtd"><svg class="icon" width="200px" height="200.00px" viewBox="0 0 1024 1024" version="1.1" xmlns="http://www.w3.org/2000/svg"><path  d="M512 0C229.677176 0 0 229.677176 0 512 0 794.322824 229.677176 1024 512 1024c282.322824 0 512-229.677176 512-512C1024 229.677176 794.322824 0 512 0z m286.479059 413.816471l-332.920471 341.353411a42.767059 42.767059 0 0 1-30.298353 12.830118h-0.240941a42.767059 42.767059 0 0 1-30.117647-12.468706L225.822118 576.512a42.646588 42.646588 0 1 1 60.355764-60.355765l148.540236 148.540236 302.802823-310.512942a42.586353 42.586353 0 1 1 60.958118 59.632942z"  /></svg>