<?xml version="1.0" standalone="no"?><!DOCTYPE svg PUBLIC "-//W3C//DTD SVG 1.1//EN" "http://www.w3.org/Graphics/SVG/1.1/DTD/svg11.dtd"><svg class="icon" width="200px" height="200.00px" viewBox="0 0 1024 1024" version="1.1" xmlns="http://www.w3.org/2000/svg"><path  d="M512 0C229.205333 0 0 229.205333 0 512c0 282.752 229.205333 512 512 512 282.752 0 512-229.248 512-512 0-282.794667-229.248-512-512-512z m308.778667 512a50.346667 50.346667 0 0 1-50.218667 50.218667h-208.341333v208.341333A50.346667 50.346667 0 0 1 512 820.778667a50.346667 50.346667 0 0 1-50.218667-50.218667v-208.341333H253.44A50.346667 50.346667 0 0 1 203.221333 512a50.304 50.304 0 0 1 50.218667-50.218667h208.341333V253.44A50.346667 50.346667 0 0 1 512 203.178667a50.389333 50.389333 0 0 1 50.218667 50.261333v208.341333h208.341333A50.346667 50.346667 0 0 1 820.778667 512z"  /></svg>