<?xml version="1.0" standalone="no"?><!DOCTYPE svg PUBLIC "-//W3C//DTD SVG 1.1//EN" "http://www.w3.org/Graphics/SVG/1.1/DTD/svg11.dtd"><svg class="icon" width="200px" height="200.00px" viewBox="0 0 1024 1024" version="1.1" xmlns="http://www.w3.org/2000/svg"><path  d="M957.44 445.44H578.56V66.56C578.56 29.696 548.864 0 512 0c-36.864 0-66.56 29.696-66.56 66.56v378.88H66.56C29.696 445.44 0 475.136 0 512c0 36.864 29.696 66.56 66.56 66.56h378.88v378.88c0 36.864 29.696 66.56 66.56 66.56 36.864 0 66.56-29.696 66.56-66.56V578.56h378.88c36.832 0 66.56-29.696 66.56-66.56 0-36.864-29.728-66.56-66.56-66.56z"  /></svg>