<?xml version="1.0" standalone="no"?><!DOCTYPE svg PUBLIC "-//W3C//DTD SVG 1.1//EN" "http://www.w3.org/Graphics/SVG/1.1/DTD/svg11.dtd"><svg class="icon" width="200px" height="114.22px" viewBox="0 0 1793 1024" version="1.1" xmlns="http://www.w3.org/2000/svg"><path d="M1270.47438569 225.57465256c22.19610547 0 40.16779116 4.22442033 53.91505596 12.53005947a60.64548831 60.64548831 0 0 1 27.56613095 32.93615643c4.58242179 13.60406447 4.58242179 28.92653723 0 45.96741886s-14.53486906 33.86696105-29.85734184 50.54984011c-61.93429441 68.09192358-121.57737789 134.68023996-178.9292505 199.76494969a7066.52398873 7066.52398873 0 0 1-166.3275903 182.79566878A159.74035945 159.74035945 0 0 1 865.646061 798.3773751a164.46598163 164.46598163 0 0 1-59.64308351-9.66604598 115.20494762 115.20494762 0 0 1-48.18702902-31.71895053c-29.85734183-32.57815495-60.78868867-65.87231287-92.93724139-99.95407502L566.28503832 554.86461783a13409.31173754 13409.31173754 0 0 0-95.80125546-100.52687817A3106.02276339 3106.02276339 0 0 1 381.62776084 358.46488402a104.82289811 104.82289811 0 0 1-25.2749206-44.89341332A72.88914649 72.88914649 0 0 1 357.49844595 271.04086846 62.1490955 62.1490955 0 0 1 383.91897174 239.25031776C396.87863287 230.87307787 413.70471285 226.72025773 434.32561092 226.72025773c26.77852725 0 63.7243029-0.21480112 110.69412655-0.5728026C592.06116076 225.78945368 643.4702053 225.57465256 699.3184707 225.57465256h571.15591499z"  /></svg>