<?xml version="1.0" standalone="no"?><!DOCTYPE svg PUBLIC "-//W3C//DTD SVG 1.1//EN" "http://www.w3.org/Graphics/SVG/1.1/DTD/svg11.dtd"><svg class="icon" width="200px" height="200.00px" viewBox="0 0 1024 1024" version="1.1" xmlns="http://www.w3.org/2000/svg"><path  d="M512 0C229.674667 0 0 229.674667 0 511.957333 0 794.368 229.674667 1024 512 1024s512.042667-229.632 512.042667-512.042667C1024.042667 229.802667 794.325333 0 512 0z m297.984 565.333333l-210.645333 210.688a75.562667 75.562667 0 0 1-106.709334 0 75.093333 75.093333 0 0 1 0-106.538666l81.92-81.92H280.917333a75.477333 75.477333 0 1 1 0-150.997334h293.632l-81.92-81.877333a75.52 75.52 0 0 1 0-106.666667 75.562667 75.562667 0 0 1 106.709334 0l210.645333 210.688a75.477333 75.477333 0 0 1 0 106.624z"  /></svg>