<?xml version="1.0" standalone="no"?><!DOCTYPE svg PUBLIC "-//W3C//DTD SVG 1.1//EN" "http://www.w3.org/Graphics/SVG/1.1/DTD/svg11.dtd"><svg class="icon" width="200px" height="200.00px" viewBox="0 0 1024 1024" version="1.1" xmlns="http://www.w3.org/2000/svg"><path  d="M512 0C229.233778 0 0 229.233778 0 512s229.233778 512 512 512 512-229.233778 512-512S794.766222 0 512 0z m226.56 647.68a64.284444 64.284444 0 0 1-90.88 90.88L512 602.254222l-135.68 136.305778a64.284444 64.284444 0 0 1-90.88-90.88L421.774222 512l-136.334222-135.68a64.284444 64.284444 0 0 1 90.88-90.88L512 421.745778l135.68-136.305778a64.284444 64.284444 0 0 1 90.88 90.88L602.254222 512l136.305778 135.68z"  /></svg>