<?xml version="1.0" standalone="no"?><!DOCTYPE svg PUBLIC "-//W3C//DTD SVG 1.1//EN" "http://www.w3.org/Graphics/SVG/1.1/DTD/svg11.dtd"><svg class="icon" width="200px" height="200.00px" viewBox="0 0 1024 1024" version="1.1" xmlns="http://www.w3.org/2000/svg"><path  d="M243.540522 88.92045V50.349912A50.630942 50.630942 0 0 1 294.626573 0.003413c28.216795 0 51.142941 22.527925 51.142941 50.346499v38.570538h320.226488V50.349912c0-27.818574 22.869257-50.346499 51.086052-50.346499 28.273684 0 51.142941 22.527925 51.142941 50.346499v38.570538h66.502889c103.821876 0 188.244706 83.285056 188.244706 185.514049v114.516951a48.924281 48.924281 0 0 1 0 19.911045v429.339013c0 102.513436-84.593496 185.798492-188.358483 185.798492l-664.118675-0.85333C75.036194 1014.328921 0 934.855408 0 838.429063V274.37761c0-102.172104 84.479718-185.45716 188.472261-185.45716h55.068261z m0 75.775748h-55.068261c-61.66735-0.113777-111.672517 49.151836-111.672517 109.738301v74.125975a29.75279 29.75279 0 0 1 3.185767 0h866.244224V274.434499c0-60.586465-50.062055-109.908967-111.615628-109.908967h-66.50289v58.14025a50.801608 50.801608 0 0 1-51.086052 50.517165 50.74472 50.74472 0 0 1-51.14294-50.346499V164.525532H345.769514v58.14025a50.915386 50.915386 0 0 1-51.142941 50.517165 50.74472 50.74472 0 0 1-51.086051-50.346499V164.525532v0.170666z m702.746101 284.614162H80.156177l-3.185767-0.056889v389.175592c0 60.643353 50.118944 109.908967 111.558739 109.908967h646.084958c61.553573 0 111.615628-49.322502 111.615628-109.908967v-389.118703h0.056888z m-410.053744 371.881427h-48.867392a50.915386 50.915386 0 0 1-51.086052-50.403387 50.630942 50.630942 0 0 1 51.086052-50.346499h48.867392c28.159906 0 51.086052 22.527925 51.086052 50.346499a50.460276 50.460276 0 0 1-51.086052 50.403387z m-228.237461-158.32125h-48.810504a50.801608 50.801608 0 0 1-51.086052-50.460276 50.630942 50.630942 0 0 1 51.086052-50.346499h48.810504c28.216795 0 51.142941 22.527925 51.14294 50.346499 0 27.875463-22.926146 50.460276-51.14294 50.460276z m228.237461 0h-48.867392a50.915386 50.915386 0 0 1-51.086052-50.460276 50.630942 50.630942 0 0 1 51.086052-50.346499h48.867392c28.159906 0 51.086052 22.527925 51.086052 50.346499 0 27.875463-22.926146 50.460276-51.086052 50.460276z m227.611686 0h-48.867393a50.801608 50.801608 0 0 1-51.086052-50.460276c0-27.818574 22.869257-50.346499 51.086052-50.346499h48.867393c28.273684 0 51.199829 22.527925 51.199829 50.346499 0 27.875463-22.926146 50.460276-51.199829 50.460276z m-455.849147 158.264361h-48.810504a50.801608 50.801608 0 0 1-51.086052-50.346498 50.630942 50.630942 0 0 1 51.086052-50.346499h48.810504c28.216795 0 51.142941 22.527925 51.14294 50.346499a50.74472 50.74472 0 0 1-51.14294 50.403387v-0.056889z m455.849147 0h-48.867393a50.801608 50.801608 0 0 1-51.086052-50.346498c0-27.818574 22.869257-50.346499 51.086052-50.346499h48.867393c28.273684 0 51.199829 22.527925 51.199829 50.346499a50.801608 50.801608 0 0 1-51.199829 50.403387v-0.056889z"  /></svg>