<?xml version="1.0" standalone="no"?><!DOCTYPE svg PUBLIC "-//W3C//DTD SVG 1.1//EN" "http://www.w3.org/Graphics/SVG/1.1/DTD/svg11.dtd"><svg class="icon" width="200px" height="200.00px" viewBox="0 0 1024 1024" version="1.1" xmlns="http://www.w3.org/2000/svg"><path  d="M945.225143 901.12h-78.06781v32.231619A90.648381 90.648381 0 0 1 776.557714 1024H90.648381A90.672762 90.672762 0 0 1 0 933.351619V213.845333a90.672762 90.672762 0 0 1 90.648381-90.648381h224.426667V81.92c0-45.251048 35.279238-81.92 78.774857-81.92h551.375238C988.769524 0 1024 36.668952 1024 81.92V819.2c0 45.251048-35.230476 81.92-78.774857 81.92zM156.842667 835.925333a24.868571 24.868571 0 0 0 24.84419 24.868572h502.272a24.868571 24.868571 0 0 0 24.892953-24.892953l-0.048762-33.426285a24.868571 24.868571 0 0 0-24.868572-24.868572H181.711238a24.868571 24.868571 0 0 0-24.868571 24.868572v33.450666z m0-246.393904a24.868571 24.868571 0 0 0 24.84419 24.868571H527.11619a24.81981 24.81981 0 0 0 24.892953-24.892952v-31.817143a24.917333 24.917333 0 0 0-24.892953-24.892953H181.711238a24.868571 24.868571 0 0 0-24.868571 24.868572v31.865905z m0-278.25981v31.841524a24.868571 24.868571 0 0 0 24.84419 24.868571h227.035429a24.868571 24.868571 0 0 0 24.868571-24.868571v-31.841524a24.868571 24.868571 0 0 0-24.868571-24.868571H181.686857a24.868571 24.868571 0 0 0-24.84419 24.868571zM945.225143 163.84c0-45.251048-35.254857-81.92-78.774857-81.92H472.624762c-29.232762 0-54.418286 16.725333-68.022857 41.276952h371.955809a90.648381 90.648381 0 0 1 90.599619 90.648381V819.2c53.296762-0.341333 78.06781-36.888381 78.06781-81.92V163.84z"  /></svg>