<?xml version="1.0" standalone="no"?><!DOCTYPE svg PUBLIC "-//W3C//DTD SVG 1.1//EN" "http://www.w3.org/Graphics/SVG/1.1/DTD/svg11.dtd"><svg class="icon" width="200px" height="200.00px" viewBox="0 0 1024 1024" version="1.1" xmlns="http://www.w3.org/2000/svg"><path  d="M819.217067 1024.017067H204.782933C129.365333 1024.017067 68.232533 962.9184 68.232533 887.586133V137.216C68.232533 61.8496 129.365333 0.768 204.782933 0.768h439.074134c11.8272-2.218667 24.3712 0.5632 33.501866 9.693867l266.325334 266.120533c5.922133 5.888 9.3696 13.294933 10.496 20.974933 1.041067 3.208533 1.536 6.656 1.536 10.205867v579.822933c0.034133 75.332267-61.047467 136.3968-136.430934 136.430934h-0.068266z m-136.567467-901.802667v151.432533h151.569067l-151.569067-151.432533z m204.868267 219.648H648.5504a34.133333 34.133333 0 0 1-34.1504-34.116267V68.983467H204.782933a68.164267 68.164267 0 0 0-68.266666 68.215466v750.3872A68.215467 68.215467 0 0 0 204.765867 955.767467h614.417066c37.700267 0 68.266667-30.5152 68.283734-68.181334V341.8624h0.0512z"  /></svg>