<?xml version="1.0" standalone="no"?><!DOCTYPE svg PUBLIC "-//W3C//DTD SVG 1.1//EN" "http://www.w3.org/Graphics/SVG/1.1/DTD/svg11.dtd"><svg class="icon" width="200px" height="200.00px" viewBox="0 0 1024 1024" version="1.1" xmlns="http://www.w3.org/2000/svg"><path  d="M587.77521 989.581711A99.384723 99.384723 0 0 1 512.226891 1023.999431h-0.398221a99.55539 99.55539 0 0 1-75.605207-34.41772C320.796099 856.006822 113.777778 546.133561 113.777778 390.48582 113.777778 287.061993 155.818597 187.734158 230.399806 114.461391A401.748664 401.748664 0 0 1 511.999336 0.001138c220.045855 0 398.449114 174.989931 398.221559 390.484682 0 155.420185-207.018322 465.521002-322.445685 599.095891zM511.999336 85.846328c-171.462825 0.227555-310.612816 136.476217-310.612815 304.639492 0 24.746625 10.296872 100.351833 106.382045 265.272447 69.461218 118.670024 148.365975 224.028071 195.356118 278.356869a11.605314 11.605314 0 0 0 8.703986 4.039105h0.398221a11.434648 11.434648 0 0 0 8.647097-3.811549c46.990144-54.72702 126.293123-159.9144 195.356119-278.584425 31.971502-54.897686 106.382045-190.805015 106.382045-265.272447 0-167.992609-138.922435-304.29816-310.612816-304.639492z m0.625777 452.721023h-0.796443c-96.71095 0-175.274375-76.91365-175.274375-171.633491 0-94.719842 78.563425-171.690381 175.274375-171.690381h0.398221c96.654061-0.170666 175.217486 76.572317 175.388153 171.462825 0 94.776731-78.335869 171.690381-174.989931 171.861047z m-0.796443-257.478682h-0.227555c-48.355475 0-87.608743 38.456825-87.608743 85.845191 0 47.331477 39.253268 85.84519 87.608743 85.84519h0.625776c48.526141-0.227555 87.608743-38.68438 87.381188-86.072746-0.170666-47.331477-39.423934-85.617635-87.779409-85.617635z"  /></svg>