<?xml version="1.0" standalone="no"?><!DOCTYPE svg PUBLIC "-//W3C//DTD SVG 1.1//EN" "http://www.w3.org/Graphics/SVG/1.1/DTD/svg11.dtd"><svg class="icon" width="200px" height="199.61px" viewBox="0 0 1026 1024" version="1.1" xmlns="http://www.w3.org/2000/svg"><path  d="M712.115422 984.022917a508.260025 508.260025 0 0 1-198.774766 39.975508A511.607728 511.607728 0 0 1 11.382189 613.648854 511.844036 511.844036 0 0 1 314.526506 40.364629c260.411878-109.883415 560.523571 12.288038 670.328217 272.896839 109.804646 260.569417-12.288038 560.878033-272.739301 670.761449zM513.340656 80.340136c-237.765655 0-431.577943 193.930443-431.577943 431.853637 0 237.923194 193.812289 431.853636 431.577943 431.853636s431.577943-193.930443 431.577944-431.853636c0-237.923194-193.812289-431.853636-431.577944-431.853637z m227.761932 510.820034a78.927012 78.927012 0 1 1 0.078769-157.893409 78.927012 78.927012 0 0 1-0.078769 157.893409z m-227.761932 0a79.005782 79.005782 0 1 1 30.208093-151.946314 79.045166 79.045166 0 0 1-30.208093 151.946314z m-227.801316 0a78.927012 78.927012 0 1 1 0.07877-157.893409 78.927012 78.927012 0 0 1-0.07877 157.893409z"  /></svg>