<?xml version="1.0" standalone="no"?><!DOCTYPE svg PUBLIC "-//W3C//DTD SVG 1.1//EN" "http://www.w3.org/Graphics/SVG/1.1/DTD/svg11.dtd"><svg class="icon" width="200px" height="200.00px" viewBox="0 0 1024 1024" version="1.1" xmlns="http://www.w3.org/2000/svg"><path  d="M938.666667 972.8c0 28.273778-23.893333 51.2-53.304889 51.2-29.468444 0-53.361778-22.926222-53.361778-51.2 0-169.642667-143.246222-307.2-320-307.2s-320 137.557333-320 307.2c0 28.273778-23.893333 51.2-53.304889 51.2C109.226667 1024 85.333333 1001.073778 85.333333 972.8c0-180.679111 122.083556-333.767111 291.271111-388.152889C267.832889 535.552 192 430.250667 192 307.2 192 137.557333 335.246222 0 512 0s320 137.557333 320 307.2c0 123.050667-75.832889 228.352-184.604444 277.390222 169.187556 54.385778 291.271111 207.530667 291.271111 388.209778zM725.333333 307.2c0-113.095111-95.516444-204.8-213.333333-204.8-86.300444 0-164.067556 49.948444-197.063111 126.464-33.052444 76.515556-14.791111 164.579556 46.193778 223.175111 61.041778 58.538667 152.803556 76.117333 232.504889 44.373333 79.701333-31.687111 131.697778-106.382222 131.697777-189.212444z"  /></svg>