<?xml version="1.0" standalone="no"?><!DOCTYPE svg PUBLIC "-//W3C//DTD SVG 1.1//EN" "http://www.w3.org/Graphics/SVG/1.1/DTD/svg11.dtd"><svg t="1593415027066" class="icon" viewBox="0 0 1024 1024" version="1.1" xmlns="http://www.w3.org/2000/svg" p-id="1637" xmlns:xlink="http://www.w3.org/1999/xlink" width="200" height="200"><defs><style type="text/css"></style></defs><path d="M396.704169 305.532131L287.824715 416.322948c56.658274 125.74041 176.869382 265.816046 316.262388 312.917502l94.134651-93.725072s223.015157 38.909899 273.120184 63.143257c43.483519 21.024998 57.818744 67.78514 51.06071 125.399095-7.167613 61.982786-88.468823 198.440484-234.619864 199.94227-146.219304 1.501786-361.520745-108.674665-515.79508-271.004032C117.781631 590.393548-19.768275 384.375873 2.417194 209.55438 24.261347 34.596361 176.62432 3.331916 214.783326 0.464871c38.568584-2.798782 69.082136 8.396347 92.359812 37.203324 29.899185 37.271587 89.56103 267.863935 89.561031 267.863936z" fill="#44A8E1" p-id="1638"></path></svg>