<?xml version="1.0" standalone="no"?><!DOCTYPE svg PUBLIC "-//W3C//DTD SVG 1.1//EN" "http://www.w3.org/Graphics/SVG/1.1/DTD/svg11.dtd"><svg class="icon" width="200px" height="153.87px" viewBox="0 0 1331 1024" version="1.1" xmlns="http://www.w3.org/2000/svg"><path  d="M1312.4096 1004.9536a63.5904 63.5904 0 0 1-45.3632 19.0464H64.1536c-16.9984 0-33.3312-6.8096-45.3632-19.0464A65.4336 65.4336 0 0 1 0 958.976V65.024C0 47.7696 6.7584 31.232 18.7904 19.0464 30.8224 6.8096 47.1552 0 64.1536 0h1202.8928c16.9984 0 33.3312 6.8096 45.3632 19.0464 12.032 12.1856 18.7904 28.7232 18.7904 45.9776v893.952c0 17.2544-6.7584 33.792-18.7904 45.9776z m-191.744-110.9504l3.4816-0.1024a136.0384 136.0384 0 0 0-11.008-14.4384l-69.4272-80.4352c-24.7808-28.7232-51.5072-38.912-68.2496-38.912-11.4688 0-16.6912 4.5056-19.6608 7.936-30.3104 35.072-74.1376 54.3744-123.4944 54.3744-57.2416 0.0512-116.9408-26.1632-163.6352-71.8848l-72.4992-70.8096a100.8128 100.8128 0 0 0-70.912-28.3136c-27.0336 0-52.224 10.0864-70.912 28.3136l-218.1632 213.248-1.024 0.9728 1.3824 0.0512h884.1216zM128.3072 129.9968v690.1248c5.632-6.8096 11.5712-13.6704 18.7904-20.736l218.1632-213.248a227.6864 227.6864 0 0 1 160-64.768c60.416 0 117.248 23.04 160 64.768l72.448 70.8608c22.7328 22.1696 50.5856 35.4304 74.5984 35.4304 12.1344 0 21.1968-3.3792 26.9312-9.984a150.8864 150.8864 0 0 1 116.224-52.3776c58.9824 0 119.04 30.3616 164.8128 83.3536l62.6176 72.5504V129.9968H128.3072z m729.7536 373.8624c-66.4576 0-120.2688-54.5792-120.2688-121.9072 0-67.328 53.8112-121.9072 120.2688-121.9072 66.4576 0 120.2688 54.5792 120.2688 121.9072 0 67.328-53.8112 121.9072-120.2688 121.9072z"  /></svg>