<?xml version="1.0" standalone="no"?><!DOCTYPE svg PUBLIC "-//W3C//DTD SVG 1.1//EN" "http://www.w3.org/Graphics/SVG/1.1/DTD/svg11.dtd"><svg t="1593415049622" class="icon" viewBox="0 0 1067 1024" version="1.1" xmlns="http://www.w3.org/2000/svg" p-id="2253" xmlns:xlink="http://www.w3.org/1999/xlink" width="208.3984375" height="200"><defs><style type="text/css"></style></defs><path d="M562.656 675.985691a175.351086 175.351086 0 0 1-151.373639-47.485586 168.311444 168.311444 0 0 1-48.210882-148.813769c11.604743-70.396422 69.457803-127.310862 141.134159-139.000934 55.463847-9.38619 112.079636 8.319577 151.842948 47.400257a168.26878 168.26878 0 0 1 48.082889 149.283078c-11.988724 70.524415-69.841783 127.182868-141.475475 138.616954m405.867368-109.605095l81.57452-50.130785a34.942224 34.942224 0 0 0 15.956523-37.672752l-39.93397-172.236578a35.454198 35.454198 0 0 0-31.01709-27.134621l-95.739134-10.410137a35.710185 35.710185 0 0 1-24.105441-13.012672l-16.084516-19.838991a34.942224 34.942224 0 0 1-7.508951-26.068009l10.964776-93.861895a35.198211 35.198211 0 0 0-20.00965-35.795514L680.75133 3.593204a36.691468 36.691468 0 0 0-41.000582 6.783655l-67.964545 66.983262a36.435481 36.435481 0 0 1-25.470706 10.410137h-25.556034a36.264823 36.264823 0 0 1-25.470705-10.410137L427.324213 10.376859a36.264823 36.264823 0 0 0-41.000583-6.783655L224.582519 80.218642a35.112882 35.112882 0 0 0-20.00965 35.795514l10.964776 93.989889a35.112882 35.112882 0 0 1-7.508951 26.068008l-15.956523 19.583005a35.838178 35.838178 0 0 1-24.105441 13.012671l-95.739133 10.538131a35.582191 35.582191 0 0 0-31.01709 27.134621l-40.019299 172.108585a34.942224 34.942224 0 0 0 15.913858 37.715416l81.574519 50.216114a35.240875 35.240875 0 0 1 15.913858 22.057545l5.674378 24.66008a34.728901 34.728901 0 0 1-4.565101 26.665311L64.292 719.759466a34.771566 34.771566 0 0 0 2.389212 40.78726l112.036972 137.976986a36.264823 36.264823 0 0 0 39.93397 11.306092l90.790051-31.401071a36.350152 36.350152 0 0 1 27.433272 1.493258l23.124158 10.922111a34.81423 34.81423 0 0 1 18.260405 20.222972l31.657058 89.25413a36.008836 36.008836 0 0 0 33.875611 23.678796h179.532207a35.752849 35.752849 0 0 0 33.832947-23.678796l31.614393-89.25413a35.838178 35.838178 0 0 1 18.303069-20.222972l23.124158-10.922111a36.350152 36.350152 0 0 1 27.433272-1.493258l90.790052 31.401071a36.179494 36.179494 0 0 0 39.93397-11.306092l112.079636-137.976986a34.984888 34.984888 0 0 0 2.346547-40.78726l-51.41072-79.995934a34.984888 34.984888 0 0 1-4.693095-26.665311l5.674379-24.532086a36.008836 36.008836 0 0 1 16.169844-22.185539" fill="#AAAAAA" p-id="2254"></path></svg>