<?xml version="1.0" standalone="no"?><!DOCTYPE svg PUBLIC "-//W3C//DTD SVG 1.1//EN" "http://www.w3.org/Graphics/SVG/1.1/DTD/svg11.dtd"><svg class="icon" width="200px" height="200.00px" viewBox="0 0 1024 1024" version="1.1" xmlns="http://www.w3.org/2000/svg"><path  d="M575.4991264 262.2845504c-100.62216747 0-182.42849387 81.7331136-182.42849387 182.43234667 0 100.5489536 81.7331136 182.43234667 182.42849387 182.43234773 100.5489536 0 182.43234667-81.88339307 182.43234667-182.43234773 0-100.62216747-81.88339307-182.43234667-182.43234667-182.43234667z"  /><path  d="M791.34760427 1.43295893h-558.73374187c-127.64176 0-231.16163627 103.48134293-231.16163627 231.2001696v558.73374294c0 127.64176 103.51987627 231.2001696 231.16163627 231.2001696h558.73374187c127.71882667 0 231.2001696-103.5584096 231.2001696-231.2001696v-558.73374294c0-127.71882667-103.48519573-231.2001696-231.2001696-231.2001696z m-215.84847787 703.5382624c-64.1195136 0-122.82509013-23.40516373-168.2790432-62.01559253l-37.48140053 37.4814016 61.48768533 61.56475093-55.01408107 54.9408672L314.72460267 735.37789653l-71.2713056 71.34837227-55.09114774-55.01408 71.2713056-71.2713056-65.10211413-65.175328 55.09114667-54.94086613 65.02504746 65.10211413 41.3925376-41.31932373c-25.74028587-40.41378987-40.8646304-88.20671787-40.8646304-139.38287574 0-143.5984256 116.72911253-260.2504704 260.25047147-260.2504704s260.32753707 116.65204587 260.32753707 260.2504704c-0.00385387 143.4404384-116.73296533 260.2466176-260.25432427 260.2466176z"  /></svg>