<?xml version="1.0" standalone="no"?><!DOCTYPE svg PUBLIC "-//W3C//DTD SVG 1.1//EN" "http://www.w3.org/Graphics/SVG/1.1/DTD/svg11.dtd"><svg t="1593415036251" class="icon" viewBox="0 0 1024 1024" version="1.1" xmlns="http://www.w3.org/2000/svg" p-id="1881" xmlns:xlink="http://www.w3.org/1999/xlink" width="200" height="200"><defs><style type="text/css"></style></defs><path d="M512 1024a512 512 0 0 1-512-512 512 512 0 0 1 512-512 512 512 0 0 1 512 512 512 512 0 0 1-512 512zM512 97.536A414.08 414.08 0 0 0 97.536 512 414.08 414.08 0 0 0 512 926.464 414.08 414.08 0 0 0 926.464 512 414.08 414.08 0 0 0 512 97.536z m170.688 585.152c-7.36 0-14.656-2.496-21.952-4.928L465.664 580.288c-17.024-7.36-26.816-24.384-26.816-43.904V243.776c0-26.816 21.952-48.704 48.768-48.704s48.768 21.888 48.768 48.704v263.36l168.192 82.88a48.896 48.896 0 0 1 21.952 65.856 51.392 51.392 0 0 1-43.84 26.816z" fill="#44A8E1" p-id="1882"></path></svg>