<svg t="1588830739957" class="icon" viewBox="0 0 1024 1024" version="1.1" xmlns="http://www.w3.org/2000/svg" p-id="1271" width="200" height="200"><path d="M512 882.688c-17.408 0-34.304-5.632-48.64-16.384l-41.984-32.768C389.632 808.96 358.4 783.36 328.704 759.296l-18.432-15.36c-51.712-43.008-87.04-75.264-108.032-99.328-59.392-66.56-85.504-139.776-85.504-238.08 0-146.432 107.52-265.728 240.128-265.728 61.44 0 116.224 40.96 155.648 81.92 39.424-40.96 94.208-81.92 155.648-81.92 132.096 0 240.128 119.296 240.128 265.728 0 97.792-26.624 171.52-85.504 238.08-20.992 23.552-56.32 56.32-108.032 99.328l-17.408 14.848c-30.208 24.576-61.44 50.176-93.184 74.752l-41.472 32.256c-15.872 10.752-32.768 16.896-50.688 16.896z" fill="#363F4D" p-id="1272"></path><path d="M356.352 190.464c-104.96 0-190.464 97.28-190.464 216.576 0 84.992 22.528 147.968 73.216 205.312 19.456 22.016 53.248 52.736 102.912 94.208l17.92 15.36c29.184 24.064 60.416 48.64 91.648 73.216l41.984 32.256c11.264 8.704 26.624 8.192 37.376-0.512l41.472-32.256c30.72-24.064 61.44-48.64 92.16-73.728l17.408-14.336c49.664-41.472 83.456-72.704 102.912-94.208 50.688-56.832 73.216-120.32 73.216-205.312 0-119.296-85.504-216.576-190.464-216.576-53.248 0-103.936 46.592-136.704 85.504-9.728 10.24-25.6 11.264-35.84 1.536l-1.536-1.536C460.288 237.056 409.6 190.464 356.352 190.464z"  p-id="1273"></path></svg>