<?xml version="1.0" standalone="no"?><!DOCTYPE svg PUBLIC "-//W3C//DTD SVG 1.1//EN" "http://www.w3.org/Graphics/SVG/1.1/DTD/svg11.dtd"><svg class="icon" width="200px" height="184.67px" viewBox="0 0 1109 1024" version="1.1" xmlns="http://www.w3.org/2000/svg"><path  d="M1058.688 144.256H48.128C21.546667 144.256 0 165.461333 0 191.573333 0 217.728 21.546667 238.933333 48.128 238.933333h111.616v581.248c0.085333 112.426667 92.714667 203.605333 207.146667 203.818667h373.034666c114.432-0.170667 207.104-91.349333 207.189334-203.818667V238.805333h111.573333c17.493333 0.426667 33.834667-8.490667 42.709333-23.296a46.592 46.592 0 0 0 0-48 48.213333 48.213333 0 0 0-42.709333-23.253333zM492.586667 724.650667c0 26.112-21.546667 47.274667-48.128 47.274666a47.701333 47.701333 0 0 1-48.128-47.274666v-297.258667c0-26.112 21.546667-47.317333 48.128-47.317333 26.581333 0 48.128 21.205333 48.128 47.317333v297.258667z m217.770666 0c0 26.112-21.546667 47.274667-48.128 47.274666a47.701333 47.701333 0 0 1-48.128-47.274666v-297.258667c0-26.112 21.546667-47.317333 48.128-47.317333 26.581333 0 48.128 21.205333 48.128 47.317333v297.258667zM369.152 94.72h368.512a47.786667 47.786667 0 0 0 46.890667-47.36c0-25.685333-20.821333-46.677333-46.890667-47.317333H369.152A47.658667 47.658667 0 0 0 322.261333 47.36c0 25.685333 20.778667 46.677333 46.890667 47.36z"  /></svg>