<?xml version="1.0" standalone="no"?>
<!DOCTYPE svg PUBLIC "-//W3C//DTD SVG 1.1//EN" "http://www.w3.org/Graphics/SVG/1.1/DTD/svg11.dtd" >
<!--
2013-9-30: Created.
-->
<svg>
<metadata>
Created by iconfont
</metadata>
<defs>

<font id="iconfont" horiz-adv-x="1024" >
  <font-face
    font-family="iconfont"
    font-weight="500"
    font-stretch="normal"
    units-per-em="1024"
    ascent="896"
    descent="-128"
  />
    <missing-glyph />
    
    <glyph glyph-name="checkbox" unicode="&#58928;" d="M397.714285 128C415.263245 128 432.812204 134.816422 446.201608 148.44927399999995L811.915891 520.812908C838.694701 548.078604 838.694701 592.285032 811.915891 619.5507279999999 785.137088 646.816424 741.720058 646.816424 714.941248 619.5507279999999L397.714285 296.55600100000004 309.058751 386.823455C282.279942 414.089151 238.862915 414.089151 212.084106 386.823455 185.305298 359.55775900000003 185.305298 315.35133199999996 212.084106 288.085636L349.226964 148.44927399999995C362.616368 134.816422 380.165327 128 397.714285 128ZM0 768.380142C0 838.862643 57.24888 896 127.619858 896L896.380141 896C966.862643 896 1024 838.75112 1024 768.380142L1024-0.3801409999999805C1024-70.86264300000005 966.751117-128 896.380141-128L127.619858-128C57.137357-128 0-70.75111700000002 0-0.3801409999999805L0 768.380142Z"  horiz-adv-x="1024" />

    
    <glyph glyph-name="admin" unicode="&#59030;" d="M339.2 387.6c-72 36-120.6 108-120.6 194.4 0 118.8 97.2 216 216 216s216-97.2 216-216c0-117-91.8-212.4-208.8-216h-1.8c-178.2 0-324-145.8-324-324 0-10.8-7.2-18-18-18s-18 7.2-18 18c0 163.8 109.8 302.4 259.2 345.6z m95.4 14.4c99 0 180 81 180 180s-81 180-180 180-180-81-180-180 81-180 180-180z m493.2-118.8l3.6-9-43.2-52.2c-7.2-9-7.2-23.4 0-32.4l43.2-50.4-3.6-9c-9-25.2-21.6-50.4-39.6-70.2l-7.2-7.2-66.6 10.8c-10.8 1.8-23.4-5.4-27-16.2l-23.4-64.8-9-1.8c-34.2-7.2-68.4-7.2-102.6 0l-10.8 1.8-21.6 63c-3.6 10.8-16.2 18-27 16.2l-68.4-10.8-7.2 7.2c-9 9-16.2 19.8-21.6 30.6-7.2 12.6-14.4 27-18 41.4l-3.6 9 45 50.4c7.2 9 7.2 23.4 0 30.6l-43.2 52.2 3.6 9c9 27 23.4 50.4 41.4 72l7.2 7.2 64.8-10.8c10.8-1.8 23.4 5.4 28.8 16.2l23.4 63 9 1.8c32.4 7.2 66.6 7.2 100.8 0l10.8-1.8 21.6-61.2c3.6-10.8 16.2-19.8 28.8-18l66.6 9 7.2-7.2c9-10.8 16.2-19.8 21.6-32.4 5.4-9 10.8-23.4 16.2-36z m-50.4 21.6c-3.6 7.2-7.2 12.6-12.6 19.8l-46.8-5.4c-28.8-3.6-57.6 14.4-66.6 41.4l-14.4 41.4c-21.6 3.6-43.2 3.6-64.8 0l-16.2-43.2c-9-27-39.6-45-68.4-39.6l-45 7.2c-10.8-12.6-18-28.8-25.2-43.2l30.6-36c18-21.6 18-55.8 0-77.4l-30.6-36c3.6-9 7.2-16.2 12.6-25.2 3.6-7.2 7.2-12.6 12.6-18l48.6 7.2c28.8 3.6 57.6-14.4 66.6-41.4l14.4-43.2c21.6-3.6 45-3.6 66.6 0l16.2 45c9 27 39.6 45 66.6 39.6l45-7.2c9 12.6 18 27 23.4 43.2l-28.8 34.2c-18 21.6-19.8 55.8-1.8 77.4l30.6 36c-3.6 7.2-7.2 14.4-12.6 23.4z m-172.8-180c-45 0-81 36-81 81s36 81 81 81 81-36 81-81-37.8-81-81-81z m0 36c25.2 0 45 19.8 45 45s-19.8 45-45 45-45-19.8-45-45 19.8-45 45-45z"  horiz-adv-x="1024" />

    
    <glyph glyph-name="cloud" unicode="&#59018;" d="M815.70909125 487.56363656L613.81818219 285.67272749999995l-85.49818219 85.52727281a43.63636406 43.63636406 0 1 1-61.73090906-61.67272781l116.36363625-116.36363625a43.63636406 43.63636406 0 0 1 61.70181843 0l232.72727251 232.7272725a43.63636406 43.63636406 0 1 1-61.67272688 61.67272781z m250.56 25.01818125C1030.31272719 664.14545437 919.70909094 864 672.00000031 864c-190.25454563 0-283.66545469-85.52727281-328.55272781-157.38181781a329.62909125 329.62909125 0 0 1-38.63272687-89.30909157C185.54181781 582.98181844 32 486.69090937 32 282.18181781c0-154.76363625 81.07636406-273.745455 228.24727313-335.12727281A588.39272719 588.39272719 0 0 1 468.36363594-96h407.27272781c150.92363625 0 436.36363594 66.90909094 436.36363594 319.99999969 0 189.6727275-123.19999969 271.70909063-245.73090844 288.58181812zM875.63636375-8.727272810000045H468.36363594S119.27272719-8.727272810000045 119.27272719 282.18181781c0 232.7272725 261.81818156 261.81818156 261.81818156 261.8181825s0 232.7272725 290.90909156 232.7272725 319.99999969-349.09090875 319.99999969-349.09090875a215.82545437 215.82545437 0 0 0 24.20363625 1.16363625C1075.78181844 428.80000031 1224.7272725 410.18181844 1224.7272725 223.99999968999998c0-232.7272725-349.09090875-232.7272725-349.09090875-232.7272725z"  horiz-adv-x="1365" />

    
    <glyph glyph-name="rili" unicode="&#59178;" d="M896 551V663a8 8 0 0 1-8 8H738v-45c0-17.673-14.327-32-32-32-17.673 0-32 14.327-32 32v45H350v-45c0-17.673-14.327-32-32-32-17.673 0-32 14.327-32 32v45H136a8 8 0 0 1-8-8v-112h768z m0-64H128v-479a8 8 0 0 1 8-8h752a8 8 0 0 1 8 8V487zM738 735h190c17.673 0 32-14.327 32-32v-735c0-17.673-14.327-32-32-32H96c-17.673 0-32 14.327-32 32V703c0 17.673 14.327 32 32 32h190V800c0 17.673 14.327 32 32 32 17.673 0 32-14.327 32-32v-65h324V800c0 17.673 14.327 32 32 32 17.673 0 32-14.327 32-32v-65zM289 423h58c17.673 0 32-14.327 32-32 0-17.673-14.327-32-32-32h-58c-17.673 0-32 14.327-32 32 0 17.673 14.327 32 32 32z m0-128h58c17.673 0 32-14.327 32-32 0-17.673-14.327-32-32-32h-58c-17.673 0-32 14.327-32 32 0 17.673 14.327 32 32 32z m0-128h58c17.673 0 32-14.327 32-32 0-17.673-14.327-32-32-32h-58c-17.673 0-32 14.327-32 32 0 17.673 14.327 32 32 32z m194 256h58c17.673 0 32-14.327 32-32 0-17.673-14.327-32-32-32h-58c-17.673 0-32 14.327-32 32 0 17.673 14.327 32 32 32z m0-128h58c17.673 0 32-14.327 32-32 0-17.673-14.327-32-32-32h-58c-17.673 0-32 14.327-32 32 0 17.673 14.327 32 32 32z m0-128h58c17.673 0 32-14.327 32-32 0-17.673-14.327-32-32-32h-58c-17.673 0-32 14.327-32 32 0 17.673 14.327 32 32 32z m194 256h58c17.673 0 32-14.327 32-32 0-17.673-14.327-32-32-32h-58c-17.673 0-32 14.327-32 32 0 17.673 14.327 32 32 32z m0-128h58c17.673 0 32-14.327 32-32 0-17.673-14.327-32-32-32h-58c-17.673 0-32 14.327-32 32 0 17.673 14.327 32 32 32z m0-128h58c17.673 0 32-14.327 32-32 0-17.673-14.327-32-32-32h-58c-17.673 0-32 14.327-32 32 0 17.673 14.327 32 32 32z"  horiz-adv-x="1024" />

    
    <glyph glyph-name="close_fill" unicode="&#58886;" d="M512 896C229.706831 896 0 666.332554 0 384s229.667446-512 512-512c282.293169 0 512 229.667446 512 512S794.332554 896 512 896z m266.460554-733.908677a31.507692 31.507692 0 1 0-44.559754-44.551877L512 339.440246 290.091323 117.539446C283.939446 111.379692 275.881354 108.307692 267.815385 108.307692s-16.124062 3.079877-22.283816 9.231754a31.507692 31.507692 0 0 0 0 44.551877L467.440246 384 245.531569 605.908677a31.507692 31.507692 0 1 0 44.559754 44.551877L512 428.551877l221.9008 221.9008a31.507692 31.507692 0 0 0 44.559754-44.551877L556.551877 384l221.908677-221.908677z"  horiz-adv-x="1024" />

    
    <glyph glyph-name="loading" unicode="&#58971;" d="M512 832q14.016 0 23.008-8.992T544 800v-192q0-14.016-8.992-23.008T512 576t-23.008 8.992T480 608V800q0 14.016 8.992 23.008T512 832z m0-640q14.016 0 23.008-8.992T544 160v-192q0-14.016-8.992-23.008T512-64t-23.008 8.992T480-32v192q0 14.016 8.992 23.008T512 192z m448 192q0-14.016-8.992-23.008T928 352h-192q-14.016 0-23.008 8.992T704 384t8.992 23.008T736 416h192q14.016 0 23.008-8.992T960 384z m-640 0q0-14.016-8.992-23.008T288 352H96q-14.016 0-23.008 8.992T64 384t8.992 23.008T96 416h192q14.016 0 23.008-8.992T320 384zM195.008 700.992q10.016 8.992 23.008 8.992t22.016-8.992l136-136q8.992-10.016 8.992-22.496t-9.504-22.016-22.016-9.504-22.496 8.992l-136 136q-8.992 8.992-8.992 22.016t8.992 23.008zM648 248q10.016 10.016 22.496 10.016t22.496-10.016l136-136q8.992-8.992 8.992-22.016t-9.504-22.496-22.496-9.504-22.016 8.992l-136 136q-10.016 10.016-10.016 22.496t10.016 22.496z m180.992 452.992q8.992-10.016 8.992-23.008t-8.992-22.016l-136-136q-10.016-8.992-22.496-8.992t-22.016 9.504-9.504 22.016 8.992 22.496l136 136q8.992 8.992 22.016 8.992t23.008-8.992zM376 248q10.016-10.016 10.016-22.496t-10.016-22.496l-136-136q-8.992-8.992-22.016-8.992t-22.496 9.504-9.504 22.496 8.992 22.016l136 136q10.016 10.016 22.496 10.016t22.496-10.016z"  horiz-adv-x="1024" />

    
    <glyph glyph-name="download" unicode="&#58909;" d="M488.6 172.79970703000004a34.43994141 34.43994141 0 0 1 48.77929689 0L692.72070313 328.07958983000003a34.43994141 34.43994141 0 0 1-48.6 48.66064455l-96.60058594-96.48017579v455.51953124a34.49970703 34.49970703 0 0 1-68.87988282 0v-455.51953124L382.10117188 376.74023437000005a34.32041015 34.32041015 0 0 1-48.60000001 1e-8 34.56035156 34.56035156 0 0 1-0.12041015-48.66064453l155.22011719-155.33964844z m435.17988281 143.28017578a34.49970703 34.49970703 0 0 1-34.4399414-34.4399414V87a20.57958985 20.57958985 0 0 0-20.51982422-20.51982422H155.12011719a20.57958985 20.57958985 0 0 0-20.51982422 20.51982422V281.76035156a34.49970703 34.49970703 0 0 1-68.82011719 0v-222.00029297c0-34.2 27.77958985-61.91982422 61.79941405-61.91982422h768.84082034c34.13935547 0 61.79941406 27.77958985 61.79941405 61.8600586V281.69970703a34.43994141 34.43994141 0 0 1-34.43994141 34.38017578z"  horiz-adv-x="1024" />

    
    <glyph glyph-name="jia" unicode="&#58930;" d="M938.67 341.37l-0.01 85.33-384-0.03-0.03 384-85.33-0.01 0.03-384-384-0.03 0.01-85.33 384 0.03 0.03-384 85.33 0.01-0.03 384z"  horiz-adv-x="1024" />

    
    <glyph glyph-name="tupian" unicode="&#58985;" d="M128 896C57.312 896 0 838.688 0 768L0 0C0-70.688 57.312-128 128-128L896-128C966.688-128 1024-70.688 1024 0L1024 768C1024 838.688 966.688 896 896 896L128 896ZM256 768C326.688 768 384 710.688 384 640 384 569.312 326.688 512 256 512 185.312 512 128 569.312 128 640 128 710.688 185.312 768 256 768L256 768ZM256 576C291.328 576 320 604.672 320 640 320 675.328 291.328 704 256 704 220.672 704 192 675.328 192 640 192 604.672 220.672 576 256 576L256 576ZM64 0 64 30.048 270.419401 214.929114C296.829988 238.583962 338.369531 237.632474 363.662431 212.342086L640.032-64 128-64C92.672-64 64-35.328 64 0ZM896-64 730.624-64 494.848 174.88 722.894502 402.926502C747.805581 427.837581 788.547366 427.484637 813.501318 402.53068L960 256.032 960 0C960-35.328 931.328-64 896-64ZM64 107.820314 64 767.733884C64 803.22708 92.796721 832 128.43811 832L895.561888 832C931.150074 832 960 802.903631 960 768.134092L960 343.476563 811.848781 479.027229C785.716032 502.937339 744.183085 502.15258 718.771238 476.966073L454.40625 214.945312 366.772947 290.401308C340.090961 313.375631 296.765741 312.886566 270.598781 289.833516L64 107.820314Z"  horiz-adv-x="1024" />

    
    <glyph glyph-name="web" unicode="&#58921;" d="M512 832C264.58 832 64 631.4200000000001 64 384s200.58-448 448-448 448 200.58 448 448S759.42 832 512 832z m-32-254.28c-42.98 3.6-83.97 14.09-121.75 30.77 30.6 80.53 75.81 135.21 121.75 153.02v-183.79z m0-64.01V416H320.89c2.05 47.45 8.52 91.44 18.39 131.18 43.79-18.45 91.1-29.93 140.72-33.47zM480 352v-97.71c-49.62-3.54-96.93-15.02-140.72-33.47-9.88 39.74-16.34 83.73-18.39 131.18H480z m0-161.72v-183.79c-45.94 17.81-91.15 72.5-121.75 153.02 37.78 16.69 78.77 27.18 121.75 30.77z m64 0c42.98-3.6 83.97-14.09 121.75-30.77-30.6-80.53-75.81-135.22-121.75-153.02V190.27999999999997z m0 64.01V352h159.11c-2.05-47.45-8.51-91.44-18.39-131.18-43.79 18.46-91.1 29.93-140.72 33.47zM544 416v97.71c49.62 3.54 96.93 15.02 140.72 33.47 9.88-39.74 16.34-83.73 18.39-131.18H544z m0 161.72V761.51c45.94-17.8 91.15-72.5 121.75-153.02-37.78-16.69-78.77-27.18-121.75-30.77z m128.96 154.45a384.634 384.634 0 0 0 92.13-60.11c-13.46-11.87-27.99-22.48-43.01-32.4-13.84 34.73-30.36 65.9-49.12 92.51z m-371.03-92.52c-15.02 9.93-29.55 20.53-43.01 32.4a384.332 384.332 0 0 0 92.13 60.11c-18.77-26.6-35.29-57.77-49.12-92.51z m-20.74-62.85c-13.48-49.33-21.94-103.51-24.26-160.8h-127.3c6.58 79.23 37.12 151.72 84.62 210.04 20.64-18.46 43.14-34.81 66.94-49.24zM256.92 352c2.32-57.29 10.78-111.47 24.26-160.8-23.8-14.43-46.29-30.78-66.95-49.24-47.5 58.32-78.04 130.81-84.62 210.04h127.31z m45.01-223.65c13.83-34.74 30.35-65.92 49.12-92.52a384.634 384.634 0 0 0-92.13 60.11c13.46 11.88 27.99 22.49 43.01 32.41z m420.14 0c15.02-9.93 29.55-20.53 43.01-32.4a384.332 384.332 0 0 0-92.13-60.11c18.77 26.6 35.29 57.77 49.12 92.51z m20.74 62.85c13.48 49.33 21.94 103.51 24.26 160.8h127.3c-6.58-79.23-37.12-151.72-84.62-210.04-20.64 18.46-43.14 34.81-66.94 49.24zM767.08 416c-2.32 57.29-10.78 111.47-24.26 160.8 23.8 14.43 46.29 30.78 66.95 49.24 47.5-58.32 78.04-130.81 84.62-210.04H767.08z"  horiz-adv-x="1024" />

    
    <glyph glyph-name="close-sm" unicode="&#58948;" d="M254.33175745 641.6682425500001a13.36651621 13.36651621 0 0 0 16.45990996 1.90950232l2.40597292-1.90950232 496.47060222-496.47060223a13.36651621 13.36651621 0 0 0-16.45990996-20.81357525l-2.40597291 1.90950233-496.47060223 496.47060222a13.36651621 13.36651621 0 0 0 0 18.90407293zM763.93973562 641.6682425500001a13.36651621 13.36651621 0 0 1-16.45990998 1.90950232l-2.40597293-1.90950232-496.47060224-496.47060223a13.36651621 13.36651621 0 0 1 16.45990999-20.81357525l2.40597292 1.90950233 496.47060223 496.47060222a13.36651621 13.36651621 0 0 1 0 18.90407293z"  horiz-adv-x="1024" />

    
    <glyph glyph-name="close-fill" unicode="&#58940;" d="M925.32 556.9100000000001a448.88 448.88 0 1 1 35.18-174.2 446 446 0 0 1-35.18 174.2zM552.6 381.76l140 140a28 28 0 0 1 0 39.6 28 28 0 0 1-39.6 0l-140-140-140 140a28 28 0 0 1-39.6 0 28 28 0 0 1 0-39.6l140-140-140-140a28 28 0 0 1 0-39.6 28 28 0 0 1 39.6 0l140 140 140-140a28 28 0 1 1 39.6 39.6z"  horiz-adv-x="1024" />

    
    <glyph glyph-name="suo" unicode="&#58895;" d="M889.883073-128H134.116927c-34.74183 0-62.980179 28.191404-62.980179 62.933233v472.353841c0 34.789774 28.238349 62.980179 62.980179 62.980179h125.95936V627.720199C260.076287 766.829354 372.890845 879.592971 512 879.592971c139.109155 0 251.922714-112.763617 251.922714-251.872772v-157.451947h125.95936c34.74183 0 62.980179-28.190405 62.980179-62.980179v-472.353841c0.000999-34.742829-28.237351-62.934232-62.980179-62.934232zM700.941536 627.720199c0 104.32038-84.620158 188.941536-188.941536 188.941536-104.369323 0-188.943534-84.621157-188.943534-188.941536v-157.451947H700.941536V627.720199z m188.941537-283.412305c0 34.788775-28.191404 62.97918-62.981178 62.97918H197.098105c-34.789774 0-62.980179-28.190405-62.980179-62.980179v-346.392484c0-34.74183 28.190405-62.980179 62.980179-62.980179h629.804789c34.789774 0 62.980179 28.238349 62.980179 62.980179V344.30689500000005zM543.48959 96.84801900000002v-130.425195h-62.981178V96.849018c-54.197334 14.07173-94.470768 62.88429-94.470768 121.49652 0 69.579549 56.381809 125.961357 125.961357 125.961357s125.960358-56.381809 125.960358-125.961357c0-58.61223-40.271436-107.425789-94.470768-121.49652zM512 281.32571700000005c-34.789774 0-62.980179-28.189406-62.980179-62.980179 0-34.787777 28.189406-62.980179 62.980179-62.980179 34.789774 0 62.980179 28.192403 62.980179 62.980179 0 34.790773-28.190405 62.980179-62.980179 62.980179z"  horiz-adv-x="1024" />

    
    <glyph glyph-name="info" unicode="&#59137;" d="M896 384a384 384 0 1 1-768 0 384 384 0 0 1 768 0zM42.666667 384C42.666667 643.2 252.8 853.333333 512 853.333333s469.333333-210.133333 469.333333-469.333333-210.133333-469.333333-469.333333-469.333333S42.666667 124.8 42.666667 384z m426.666666 0v-213.333333h85.333334v298.666666H384v-85.333333h85.333333z m85.333334 128V597.333333h-85.333334v-85.333333h85.333334z"  horiz-adv-x="1024" />

    
    <glyph glyph-name="left-fill" unicode="&#58919;" d="M514.42725925 866.6605037c-266.87715555 0-483.9954963-217.11834075-483.99549628-484.11685925C30.43176297 115.66648888999998 247.5501037-101.45185185000003 514.42725925-101.45185185000003s483.9954963 217.11834075 483.9954963 483.9954963S781.30441482 866.6605037 514.42725925 866.6605037zM732.88059259 311.18222221999997H455.3234963l77.42957037-77.42957037c27.79211852-27.79211852 27.79211852-73.0605037 0-100.85262222-27.79211852-27.79211852-73.0605037-27.79211852-100.85262222 0L232.74382222 332.17801482000004c-27.79211852 27.79211852-27.79211852 73.0605037 0 100.85262221L431.90044445 632.18725925c27.79211852 27.79211852 73.0605037 27.79211852 100.85262222 0 13.95674075-13.95674075 20.87442963-32.16118518 20.87442963-50.36562962s-6.91768889-36.53025185-20.87442963-50.36562963l-77.42957037-77.42957037H732.88059259c39.44296297 0 71.36142222-31.91845925 71.36142223-71.36142222S772.32355555 311.18222221999997 732.88059259 311.18222221999997z"  horiz-adv-x="1024" />

    
    <glyph glyph-name="right-fill" unicode="&#58920;" d="M514.42725925 866.6605037c-266.87715555 0-483.9954963-217.11834075-483.99549628-483.99549629 0-266.99851852 217.11834075-484.11685925 483.99549628-484.11685926s483.9954963 217.11834075 483.9954963 484.11685926c0 266.75579259-217.11834075 483.9954963-483.9954963 483.99549629z m281.68343705-534.48248888L596.95407408 133.02139259c-27.79211852-27.79211852-73.0605037-27.79211852-100.85262223 0-13.95674075 13.95674075-20.87442963 32.16118518-20.87442963 50.36562963s6.91768889 36.53025185 20.87442963 50.36562963l77.42957037 77.42957037H295.97392592c-39.44296297 0-71.36142222 31.91845925-71.36142222 71.36142223s31.91845925 71.36142222 71.36142222 71.36142222h277.5570963l-77.42957037 77.42957036c-27.79211852 27.79211852-27.79211852 73.0605037 0 100.85262222 27.79211852 27.79211852 73.0605037 27.79211852 100.85262223 0l199.15662222-199.15662222c27.79211852-27.91348148 27.79211852-73.0605037 0-100.85262221z"  horiz-adv-x="1024" />

    
    <glyph glyph-name="up" unicode="&#59212;" d="M758.4 275.41333337000003L539.52 521.17333337c-14.72 16.64-40.32 16.64-54.4 0L266.24 275.41333337000003C244.48 251.73333336999997 261.76 213.33333337 293.12 213.33333337l437.76 0C762.88 213.33333337 779.52 251.73333336999997 758.4 275.41333337000003z"  horiz-adv-x="1024" />

    
    <glyph glyph-name="down" unicode="&#59213;" d="M757.76 493.22666663l-218.88-245.76c-14.72-16.64-40.32-16.64-54.4 0L265.6 493.22666663C244.48 516.90666663 261.12 554.66666663 293.12 554.66666663l437.76 0C762.24 554.66666663 779.52 516.90666663 757.76 493.22666663z"  horiz-adv-x="1024" />

    
    <glyph glyph-name="close-border" unicode="&#58925;" d="M512 891.95351609c-280.92516125 0-509.54385635-228.47888498-509.54385635-509.54385636S231.07483875-127.13419662000001 512-127.13419662000001s509.53803093 228.47888498 509.53803093 509.54385635S793.06497138 891.95351609 512 891.95351609z m0-985.04394524c-262.24303218 0-475.50008889 213.39686685-475.50008889 475.50008888 0 262.24303218 213.39104142 475.6340736 475.50008889 475.6340736 262.24303218 0 475.6340736-213.385216 475.6340736-475.49426346 0-262.38866773-213.385216-475.63989902-475.6340736-475.63989902z m27.81639111 476.46710897l225.85161956 226.67882951c7.32838115 7.340032 7.32838115 19.51516445 0 26.84937102a18.7170816 18.7170816 0 0 1-26.71538632 0l-226.95844977-227.78565973-226.81281423 227.78565973a18.71125618 18.71125618 0 0 1-26.70956088 0 19.12486115 19.12486115 0 0 1 0-26.84937102l225.85161955-226.67882951-225.85161955-226.81863964a19.12486115 19.12486115 0 0 1 0-26.8435456 18.7170816 18.7170816 0 0 1 26.70956088 0L512 357.50015430999997l226.81281422-227.78565973a18.7170816 18.7170816 0 0 1 26.70956089 0 19.13068658 19.13068658 0 0 1 0 26.8435456l-225.705984 226.81863964z"  horiz-adv-x="1024" />

    
    <glyph glyph-name="sad" unicode="&#58904;" d="M513.15 254.01199999999994c168.465 0 327.328-73.28 435.855-201.055 17.151-20.15 14.863-49.97-5.208-67.902-8.204-7.333-19.016-11.374-30.437-11.374-14.296 0-27.943 6.08-37.444 16.681C784.2 97.21799999999996 651.521 158.55600000000004 511.991 158.55600000000004c-140.53 0-273.215-61.351-364.031-168.317-9.165-10.763-22.292-16.942-36.014-16.942-11.251 0-22.12 4.175-30.606 11.759-10.123 8.6-16.111 20.257-16.981 32.942-0.847 12.384 3.298 24.35 11.671 33.693 110.402 128.613 269.695 202.321 437.12 202.321z m273.223 246.564c-43.766 0-80.734 37.845-80.734 82.638V703.895c0 44.798 36.969 82.646 80.734 82.646 43.763 0 80.734-37.848 80.734-82.646v-120.683c0-45.566-36.216-82.636-80.734-82.636z m-547.906 0c-43.761 0-80.731 37.845-80.731 82.638V703.895c0 44.798 36.97 82.646 80.731 82.646 43.771 0 80.746-37.848 80.746-82.646v-120.683c0-44.791-36.975-82.636-80.746-82.636z"  horiz-adv-x="1024" />

    
    <glyph glyph-name="gengduo" unicode="&#59202;" d="M512 832c247.424 0 448-200.576 448-448S759.424-64 512-64 64 136.576 64 384 264.576 832 512 832z m0-48C291.0864 784 112 604.9136 112 384s179.0864-400 400-400 400 179.0864 400 400S732.9136 784 512 784z m0-352c26.5104 0 48-21.4896 48-48 0-26.5104-21.4896-48-48-48-26.5104 0-48 21.4896-48 48 0 26.5104 21.4896 48 48 48z m-192 0c26.5104 0 48-21.4896 48-48 0-26.5104-21.4896-48-48-48-26.5104 0-48 21.4896-48 48 0 26.5104 21.4896 48 48 48z m384 0c26.5104 0 48-21.4896 48-48 0-26.5104-21.4896-48-48-48-26.5104 0-48 21.4896-48 48 0 26.5104 21.4896 48 48 48z"  horiz-adv-x="1024" />

    
    <glyph glyph-name="check" unicode="&#58955;" d="M929.28 706.56l-417.28-417.28-158.208 158.208-53.248-53.248 184.832-184.832 26.624-25.6 26.624 25.6 443.904 443.904-53.248 53.248z m-417.28 158.72c-266.24 0-480.768-214.528-480.768-480.768s214.528-480.768 480.768-480.768 480.768 214.528 480.768 480.768c0 51.712-7.168 103.424-25.6 151.552l-59.904-58.88c7.168-29.696 11.776-59.392 11.776-92.672 0-225.792-181.248-407.04-407.04-407.04s-407.04 181.248-407.04 407.04 181.248 407.04 407.04 407.04c111.104 0 210.432-44.032 281.088-114.688L844.8 728.576c-84.992 84.992-203.264 136.704-332.8 136.704z"  horiz-adv-x="1024" />

    
    <glyph glyph-name="people" unicode="&#58901;" d="M1011.72984718-38.62867057999995c-11.42239687 0-21.41699299 9.99459726-21.41699299 21.416993 0 128.50196025-71.38997817 244.15372515-185.61394347 304.12130759-5.71119843 2.85559922-9.99459726 8.56679765-11.42239687 15.70579456s1.42779961 14.27799609 7.13899804 18.56139492c45.68958635 42.83398713 69.96217856 99.94596921 69.96217856 162.76914972 0 122.79076295-99.94596921 222.73673216-222.73673216 222.73673216s-222.73673216-99.94596921-222.73673216-222.73673216c0-61.39538091 25.70039182-119.93516373 69.96217856-162.76914972 5.71119843-4.28339883 7.13899805-11.42239687 7.13899805-18.56139492s-5.71119843-12.85019648-11.42239573-15.70579456c-114.2239653-59.9675813-185.61394347-175.61934621-185.61394347-304.12130759 0-11.42239687-9.99459726-21.41699299-21.41699413-21.416993s-21.41699299 9.99459726-21.416993 21.416993c0 135.64095829 69.96217856 258.43172125 184.18614386 328.3938998-41.40618752 48.54518557-64.25098013 108.51276686-64.25098013 172.76374699 0 147.06335517 119.93516373 265.57071929 265.57071815 265.57071929s265.57071929-119.93516373 265.57071929-265.57071929c0-64.25098013-22.84479261-124.21856256-64.25098012-172.76374699 114.2239653-69.96217856 184.18614386-192.75294151 184.18614385-328.3938998 0-12.85019648-9.99459726-21.41699299-21.41699413-21.416993zM66.52653568 18.483311500000013c-11.42239687 0-21.41699299 9.99459726-21.41699299 21.416993 0 135.64095829 69.96217856 258.43172125 184.18614385 328.3938998-41.40618752 48.54518557-64.25098013 108.51276686-64.25098012 172.76374813 0 147.06335517 119.93516373 265.57071929 265.57071815 265.57071815 11.42239687 0 21.41699299-9.99459726 21.41699413-21.416993s-9.99459726-21.41699299-21.41699413-21.41699299c-122.79076295 0-222.73673216-99.94596921-222.73673216-222.73673216 0-61.39538091 25.70039182-119.93516373 69.96217856-162.76915086 5.71119843-4.28339883 7.13899805-11.42239687 7.13899804-18.56139378s-5.71119843-12.85019648-11.42239573-15.7057957c-114.2239653-59.9675813-185.61394347-175.61934621-185.61394347-304.12130759 0-11.42239687-9.99459726-21.41699299-21.41699413-21.416993zM1011.72984718-38.62867057999995c-11.42239687 0-21.41699299 9.99459726-21.41699299 21.416993 0 128.50196025-71.38997817 244.15372515-185.61394347 304.12130759-5.71119843 2.85559922-9.99459726 8.56679765-11.42239687 15.70579456s1.42779961 14.27799609 7.13899804 18.56139492c45.68958635 42.83398713 69.96217856 99.94596921 69.96217856 162.76914972 0 122.79076295-99.94596921 222.73673216-222.73673216 222.73673216s-222.73673216-99.94596921-222.73673216-222.73673216c0-61.39538091 25.70039182-119.93516373 69.96217856-162.76914972 5.71119843-4.28339883 7.13899805-11.42239687 7.13899805-18.56139492s-5.71119843-12.85019648-11.42239573-15.70579456c-114.2239653-59.9675813-185.61394347-175.61934621-185.61394347-304.12130759 0-11.42239687-9.99459726-21.41699299-21.41699413-21.416993s-21.41699299 9.99459726-21.416993 21.416993c0 135.64095829 69.96217856 258.43172125 184.18614386 328.3938998-41.40618752 48.54518557-64.25098013 108.51276686-64.25098013 172.76374699 0 147.06335517 119.93516373 265.57071929 265.57071815 265.57071929s265.57071929-119.93516373 265.57071929-265.57071929c0-64.25098013-22.84479261-124.21856256-64.25098012-172.76374699 114.2239653-69.96217856 184.18614386-192.75294151 184.18614385-328.3938998 0-12.85019648-9.99459726-21.41699299-21.41699413-21.416993z"  horiz-adv-x="1070" />

    
    <glyph glyph-name="files" unicode="&#59194;" d="M128 0c-35.3456 0-64 28.6544-64 64V704c0 35.3456 28.6544 64 64 64h337.1136a64 64 0 0 0 55.1744-31.568L576.968 640h318.2688c35.3456 0 64-28.6544 64-64a64 64 0 0 0-1.6624-14.4896l-119.0048-512C831.8304 20.518400000000042 805.9952 0 776.2304 0H128z m767.2368 592H257.3696a16 16 0 0 1-15.584-12.3776l-119.008-512a16 16 0 0 1-0.4144-3.6224c0-8.8368 7.1632-16 16-16h637.8672a16 16 0 0 1 15.584 12.3776l119.008 512a16 16 0 0 1 0.4144 3.6224c0 8.8368-7.1632 16-16 16z m-430.1232 128H128c-8.8368 0-16-7.1632-16-16v-470.7312l83.0304 357.2208c6.7392 28.992 32.5744 49.5104 62.3392 49.5104h263.9216l-42.384 72.1072a16 16 0 0 1-13.28 7.8848l-0.5136 0.008z"  horiz-adv-x="1024" />

    
    <glyph glyph-name="add" unicode="&#58923;" d="M512.006827-124.59008C231.120213-124.59008 3.413333 103.14752 3.413333 383.996587S231.120213 892.59008 512.006827 892.59008 1020.586667 664.8832 1020.586667 383.996587c0-280.89344-227.730773-508.586667-508.57984-508.586667z m278.278826 537.378133a19.13856 19.13856 0 0 1-19.135146 19.135147h-211.162454V643.085653a19.135147 19.135147 0 0 1-19.135146 19.135147H483.2256a19.135147 19.135147 0 0 1-19.13856-19.135147v-211.11808H252.91776a19.135147 19.135147 0 0 1-19.135147-19.13856v-57.57952a19.135147 19.135147 0 0 1 19.135147-19.135146h211.121493v-211.2a19.135147 19.135147 0 0 1 19.135147-19.13856h57.57952a19.13856 19.13856 0 0 1 19.13856 19.13856v211.101013h211.2a19.135147 19.135147 0 0 1 19.131733 19.13856l0.06144 57.634133z"  horiz-adv-x="1024" />

    
    <glyph glyph-name="radioboxfill" unicode="&#58916;" d="M512 830.016C266.08 830.016 65.984 629.92 65.984 384S266.048-62.016 512-62.016 958.016 138.048 958.016 384c0 245.92-200.064 446.016-446.016 446.016zM512 224c-88.224 0-160 71.776-160 160s71.776 160 160 160 160-71.776 160-160-71.776-160-160-160z"  horiz-adv-x="1024" />

    
    <glyph glyph-name="radiobox" unicode="&#58922;" d="M512-64C264.96-64 64 136.96000000000004 64 384S264.96 832 512 832s448-200.96 448-448-200.96-448-448-448z m0 832C300.256 768 128 595.744 128 384s172.256-384 384-384 384 172.256 384 384S723.744 768 512 768z"  horiz-adv-x="1024" />

    
    <glyph glyph-name="save" unicode="&#59207;" d="M647 541.5L647 721.5C647 733.92640722 636.92640723 744 624.5 744 612.07359277 744 602 733.92640722 602 721.5L602 541.5C602 529.07359277 612.07359277 519 624.5 519 636.92640723 519 647 529.07359277 647 541.5L647 541.5ZM624.5 789L782 789 759.5 811.5 759.5 496.38262646C759.5 459.22848721 729.18032364 429 691.93662911 429L309.56337089 429C272.26664404 429 242 459.22256426 242 496.38262646L242 811.5C242 823.92640723 231.92640722 834 219.5 834 207.07359278 834 197 823.92640723 197 811.5L197 496.38262646C197 434.355058 247.42849854 384 309.56337089 384L691.93662911 384C754.00284658 384 804.5 434.34528193 804.5 496.38262646L804.5 811.5 804.5 834 782 834 624.5 834C612.07359277 834 602 823.92640723 602 811.5 602 799.07359277 612.07359277 789 624.5 789L624.5 789ZM804.5-21L174.57130742-21C137.18529424-21 107 9.079857999999945 107 46.35598857000002L107 745.48441641 107 811.5 84.5 789 152 789 849.7051042 789C886.92398193 789 917 758.92902685 917 721.61601474L917-43.5C917-55.926407229999995 927.07359277-66 939.5-66 951.92640723-66 962-55.926407229999995 962-43.5L962 721.61601474C962 783.78353145 911.77510449 834 849.7051042 834L152 834 84.5 834 62 834 62 811.5 62 745.48441641 62 46.35598857000002C62-15.808270890000017 112.36765977-66 174.57130742-66L804.5-66C816.92640722-66 827-55.926407229999995 827-43.5 827-31.073592770000005 816.92640722-21 804.5-21L804.5-21Z"  horiz-adv-x="1024" />

    
    <glyph glyph-name="del" unicode="&#58924;" d="M952.14301276 699.86733868H602.90535451c-14.26868849 0-25.89076498 11.62207669-25.89076622 25.89076504v72.4941428h-127.7277756v-72.4941428c0-14.26868849-11.62207669-25.89076498-25.89076501-25.89076504H71.85698724c-14.26868849 0-25.89076498 11.62207669-25.89076497 25.89076504s11.62207669 25.89076498 25.89076497 25.89076499h325.64829419v72.49414405c0 14.26868849 11.62207669 25.89076498 25.89076625 25.89076497h179.50930688c14.26868849 0 25.89076498-11.62207669 25.89076499-25.89076497v-72.49414405h323.34689321c14.26868849 0 25.89076498-11.62207669 25.89076497-25.89076499s-11.62207669-25.89076498-25.89076497-25.89076504zM815.20963067-81.34335729999998h-606.41926134c-29.45793809 0-53.50758203 24.04964398-53.50758201 53.50758205v631.73467619c0 14.26868849 11.62207669 25.89076498 25.89076494 25.89076502s25.89076498-11.62207669 25.89076627-25.89076502v-631.73467611c0-0.92056112 0.80549084-1.72605078 1.72605073-1.72605079h606.41926141c0.92056112 0 1.72605078 0.80549084 1.7260508 1.72605071v631.73467619c0 14.26868849 11.62207669 25.89076498 25.89076617 25.89076502s25.89076498-11.62207669 25.89076513-25.89076502v-631.73467611c0-29.57300714-24.04964398-53.50758203-53.5075821-53.50758197zM339.39489738 74.92179526999996c-14.26868849 0-25.89076498 11.62207669-25.89076637 25.8907661V564.77507771c0 14.26868849 11.62207669 25.89076498 25.89076637 25.89076498s25.89076498-11.62207669 25.89076502-25.89076498v-463.96251617c0-14.38375877-11.62207669-25.89076498-25.89076502-25.89076627zM512 74.92179526999996c-14.26868849 0-25.89076498 11.62207669-25.89076498 25.8907661V564.77507771c0 14.26868849 11.62207669 25.89076498 25.89076498 25.89076498s25.89076498-11.62207669 25.89076498-25.89076498v-463.96251617c0-14.38375877-11.62207669-25.89076498-25.89076498-25.89076627zM684.60510262 74.92179526999996c-14.26868849 0-25.89076498 11.62207669-25.89076502 25.8907661V564.77507771c0 14.26868849 11.62207669 25.89076498 25.89076502 25.89076498s25.89076498-11.62207669 25.89076637-25.89076498v-463.96251617c0-14.38375877-11.62207669-25.89076498-25.89076637-25.89076627z"  horiz-adv-x="1024" />

    
    <glyph glyph-name="mail" unicode="&#58984;" d="M858.656 704 165.344 704C109.472 704 64 658.56 64 602.688l0-469.376C64 77.44 109.472 32 165.344 32l693.312 0C914.528 32 960 77.44 960 133.312L960 602.688C960 658.56 914.528 704 858.656 704zM858.656 96 165.344 96C144.736 96 128 112.736 128 133.312L128 602.688C128 623.264 144.736 640 165.344 640l684.544 0-307.488-279.808c-14.592-14.56-38.272-14.528-54.752 1.792l-244.256 206.752C229.856 580.16 209.664 578.496 198.272 564.992c-11.424-13.472-9.76-33.664 3.744-45.088l242.304-204.96c19.904-19.904 46.048-29.792 72.032-29.792 25.632 0 51.136 9.632 70.176 28.736L896 595.456l0-462.144C896 112.736 879.264 96 858.656 96z"  horiz-adv-x="1024" />

    
    <glyph glyph-name="male" unicode="&#58945;" d="M412.3 39.10000000000002c133.6 0 241.9 108.3 241.9 241.9S545.9 522.9 412.3 522.9 170.4 414.6 170.4 281s108.3-241.9 241.9-241.9z m232.6 435.2c43.6-52.4 69.8-119.8 69.8-193.2 0-167-135.4-302.4-302.4-302.4S110 114 110 281s135.4 302.4 302.4 302.4c71.7 0 137.6-25 189.5-66.7L729 643.9H563.5c-16.7 0-30.2 13.5-30.2 30.2s13.5 30.2 30.2 30.2h241.9c16.7 0 30.2-13.5 30.2-30.2v-241.9c0-16.7-13.5-30.2-30.2-30.2s-30.2 13.5-30.2 30.2V604.5L644.9 474.3z"  horiz-adv-x="1024" />

    
    <glyph glyph-name="female" unicode="&#58946;" d="M412.9 241c132.5 0 239.8 107.4 239.8 239.8S545.3 720.7 412.9 720.7 173 613.3 173 480.9 280.4 241 412.9 241zM645 291.1l72.8-72.8 42.4 42.4c11.7 11.7 30.7 11.7 42.4 0s11.7-30.7 0-42.4L760.2 176l63.6-63.6c11.7-11.7 11.7-30.7 0-42.4s-30.7-11.7-42.4 0l-63.6 63.6-42.4-42.4c-11.7-11.7-30.7-11.7-42.4 0s-11.7 30.7 0 42.4l42.4 42.4-72.8 72.8c-51.7-42.3-117.8-67.7-189.7-67.7-165.6 0-299.8 134.2-299.8 299.8s134.2 299.8 299.8 299.8 299.8-134.2 299.8-299.8c-0.1-72-25.4-138.1-67.7-189.8z"  horiz-adv-x="1024" />

    
    <glyph glyph-name="AddwithcircleF" unicode="&#58937;" d="M512 844.8C258.048 844.8 51.2 637.952 51.2 384s206.848-460.8 460.8-460.8 460.8 206.848 460.8 460.8S765.952 844.8 512 844.8z m235.52-481.28H532.48v-215.04c0-11.264-9.216-20.48-20.48-20.48s-20.48 9.216-20.48 20.48V363.52H276.48c-11.264 0-20.48 9.216-20.48 20.48s9.216 20.48 20.48 20.48h215.04V619.52c0 11.264 9.216 20.48 20.48 20.48s20.48-9.216 20.48-20.48v-215.04h215.04c11.264 0 20.48-9.216 20.48-20.48s-9.216-20.48-20.48-20.48z"  horiz-adv-x="1024" />

    
    <glyph glyph-name="view" unicode="&#58953;" d="M512 0C271.232 0 32 209.98400000000004 32 384S271.232 768 512 768c240.96 0 480-209.6 480-384s-239.04-384-480-384z m0 64c207.36 0 416 182.976 416 320S719.36 704 512 704C304.896 704 96 520.704 96 384s208.896-320 416-320z m0 128a192 192 0 1 0 0 384 192 192 0 0 0 0-384z m0 64a128 128 0 1 1 0 256 128 128 0 0 1 0-256z"  horiz-adv-x="1024" />

    
    <glyph glyph-name="fl" unicode="&#59496;" d="M170.66666701 0l0 768 85.33333299 0L256 0 170.66666701 0z m298.66666599 0l0 512 85.333334 0L554.666667 0l-85.333334 0z m298.666667 0l0 768 85.33333299 0L853.33333299 0l-85.33333299 0z"  horiz-adv-x="1024" />

    
    <glyph glyph-name="collection-fill" unicode="&#59114;" d="M985.32461733 434.12517926c19.38700515 19.05560336 26.38786813 42.66798143 19.17987902 64.70620098-7.16656387 22.03821954-26.6778447 36.95130043-53.5213903 40.88669676l-246.27296079 36.03994549c-9.03069899 1.3256072-23.90235465 12.26186651-27.96202667 20.58833666l-110.19109767 224.85611963c-12.01331517 24.52373301-32.2288248 38.52545897-55.50980109 38.52545896-23.23955105 0-43.49648592-14.00172595-55.42695064-38.52545896l-110.19109767-224.85611963c-4.01824679-8.32647017-18.88990245-19.22130427-27.96202667-20.58833666l-246.2729608-36.03994549c-26.80212037-3.93539635-46.31340121-18.84847724-53.52139029-40.88669676-7.2079891-22.03821954-0.20712613-45.60917238 19.17987904-64.70620098l178.25274183-175.06299954c6.58661072-6.46233505 12.34471696-24.35803212 10.77055844-33.554432l-42.04660308-247.14289051c-4.59819995-26.96782128 3.56256933-50.24879755 22.45247179-63.87769648 9.73492781-7.04228819 21.00258892-10.5634323 32.97447885-10.56343229 11.10196021 0 22.78387358 3.02404141 34.38293649 9.11354943l220.29934492 116.73628318c7.82936747 4.14252247 26.47071858 4.14252247 34.34151126 0l220.25791968-116.65343273c23.9852051-12.75896921 48.55036334-12.22044128 67.39884059 1.36703241 18.84847724 13.62889893 27.0092465 36.86844997 22.45247176 63.79484603l-42.04660305 247.22574096c-1.65700898 9.19639988 4.14252247 27.09209695 10.77055842 33.554432l178.21131663 175.06299954z"  horiz-adv-x="1024" />

    
    <glyph glyph-name="collection" unicode="&#59115;" d="M749.03513568 318.17597535000004c-26.09789155-25.64221408-40.55529497-70.42288197-34.38293648-106.62852836l34.92146441-205.26198834-182.51953999 96.68647442c-32.43595093 17.15004302-79.49500619 17.19146825-111.93095712 0l-182.51953999-96.64504919 34.96288964 205.26198834c6.13093325 36.12279593-8.36789538 80.94488905-34.3829365 106.58710313l-148.3023044 145.65109002 204.64060999 29.95043745c36.16422115 5.30242877 74.19257742 33.14017975 90.34841505 66.07323338l91.21834478 186.2478102 91.21834476-186.2478102c16.19726285-32.97447885 54.1841939-60.77080462 90.38984027-66.07323338l204.64060999-29.95043745-148.30230441-145.65109002z m236.28948165 115.90777869c19.38700515 19.05560336 26.38786813 42.66798143 19.17987902 64.7476262-7.16656387 22.03821954-26.71926992 36.9098752-53.5213903 40.84527153l-246.31438602 36.08137072c-8.98927376 1.3256072-23.86092942 12.26186651-27.96202666 20.54691143l-110.14967245 224.93897008c-11.97188994 24.44088257-32.2288248 38.52545897-55.50980109 38.52545897-23.19812583 0-43.4550607-14.08457639-55.46837586-38.52545897l-110.10824722-224.93897008c-4.05967202-8.28504494-18.97275291-19.22130427-28.0034519-20.54691143l-246.31438601-36.03994549c-26.80212037-3.97682157-46.27197598-18.84847724-53.43853985-40.88669676-7.24941431-22.03821954-0.24855135-45.6505976 19.13845381-64.7476262L215.06398942 259.10360493999997c6.62803595-6.50376027 12.42756741-24.39945733 10.81198365-33.554432l-42.0880283-247.18431573c-4.55677472-26.92639605 3.60399455-50.24879755 22.45247178-63.87769648 9.73492781-7.04228819 21.04401413-10.5634323 32.97447886-10.56343229 11.10196021 0 22.82529881 3.06546663 34.38293649 9.19639988l220.2993449 116.69485796c7.87079269 4.14252247 26.51214381 4.14252247 34.3829365 0l220.25791968-116.69485796c23.94377987-12.71754398 48.55036334-12.17901605 67.35741536 1.36703241 18.84847724 13.67032415 27.05067173 36.9098752 22.49389699 63.83627125l-42.08802826 247.22574096c-1.57415854 9.15497467 4.1839477 27.05067173 10.7705584 33.554432l178.25274186 175.02157432z"  horiz-adv-x="1024" />

    
    <glyph glyph-name="sc" unicode="&#58988;" d="M983.36376 530.56255253c-0.57523413-7.65050987-1.13627947-15.302112-1.72897813-22.9515296-3.0595488-39.46632747-13.86675413-76.87949333-31.2591392-112.25150506-28.13082347-57.2145504-63.6294528-109.58818027-105.26682667-157.890416-45.1411744-52.36598933-94.1736416-100.86360853-145.13592747-147.4739776-48.89711787-44.7220288-99.54613547-87.3832544-151.4307616-128.59274987-12.81561387-10.17848533-26.87993387-15.90463467-43.51916586-14.2138592-11.2394496 1.14173653-21.05118187 5.645376-29.76920534 12.55255573-92.59638507 73.3636864-181.37788587 150.96686293-262.47285546 237.05556694-46.61255253 49.4832672-88.52389973 102.5369184-122.29136747 161.77625066-19.9138112 34.93430933-36.88159253 71.06056533-44.77333013 110.73537494-3.1425056 15.79875627-4.41304213 31.96972267-6.54042774 47.97041173-0.22048853 1.6569376-0.47808853 3.30841707-0.718224 4.9631712 0 8.93741973 0 17.87483947 0 26.8122592 0.30562773 1.797744 0.72259093 3.58566507 0.8994176 5.39650773 0.7487872 7.66033387 1.089344 15.37633493 2.1819616 22.98536747 7.96159467 55.429904 28.30656 105.72745067 63.95800214 149.15820267 46.4444576 56.57928213 105.4261888 90.69276267 179.16645226 97.16333333 37.93928213 3.32915627 74.59820373-2.4603008 109.93528534-16.5213472 40.27733227-16.02688533 74.23363307-40.93115627 102.51290453-73.67586347 4.5986016-5.3255584 8.97016533-10.84650027 13.7652416-16.6632448 1.35349333 1.678768 2.5126944 3.06282347 3.6129536 4.4905408 23.3663104 30.29422933 51.60628693 54.959456 85.31262827 73.13119147C649.30858987 821.21098453 702.03478293 830.66360427 757.50070827 821.312496c64.58781227-10.88906987 116.83155093-43.58684053 157.97882986-93.97498347 39.40411093-48.2531168 60.827504-103.97882453 66.20327254-165.95024853 0.65054933-7.49333013 1.124272-15.00194133 1.6798592-22.50400427C983.36376 536.11078293 983.36376 533.3361216000001 983.36376 530.56255253zM924.5108288 534.34360107c-0.66037333 8.90249067-1.059872 17.83336213-2.02369067 26.702016-5.4008736 49.65682027-23.7101408 93.928048-57.3531744 131.01048106-45.01455787 49.61534187-100.86033387 73.60491413-168.32322773 66.9029408-46.39642987-4.6084256-85.43924587-25.13785813-118.44373547-57.62933013-22.3948512-22.04774613-38.5090592-48.27058133-50.7428896-77.02466667-3.17852587-7.47040853-8.49426027-12.18907733-16.80623573-12.21745706-8.33380587-0.02837973-13.68337813 4.7274016-16.86736107 12.15742293-10.31056 24.0605216-23.07159787 46.65403093-40.60915626 66.24365867-38.2329024 42.70706987-85.31481173 67.5458496-143.2508608 69.4920416-53.50336 1.7966528-100.27309227-16.17314987-138.62715414-52.83861974-63.8030048-60.99341547-84.47979413-136.35787093-68.64065066-222.26538133 6.01431147-32.62136427 20.79249067-61.9626912 36.88268373-90.66001707 32.55150613-58.0583008 74.04152427-109.3163904 119.75902507-157.30972373 76.6677376-80.4837152 160.26012053-153.3038208 247.04521813-222.57755733 3.27458027-2.61420587 5.18256853-2.67096533 8.4909856-0.0327456 48.79888 38.91183253 96.54334613 79.0636384 142.7050976 121.07540586 50.2833568 45.7622528 98.835552 93.2316544 143.3141696 144.76699094 40.26859947 46.65730453 74.59602027 97.18298027 100.67804907 153.0997056C916.6092672 465.20957973 923.99453653 498.9966944 924.5108288 534.34360107z"  horiz-adv-x="1024" />

    
    <glyph glyph-name="resume" unicode="&#58969;" d="M838.29268649 869.77980155H185.70731351c-45.70583125 0-82.85044939-37.14461813-82.85044937-82.85044939v-805.85870432c0-45.70583125 37.14461813-82.85044939 82.85044937-82.85044939h652.58537298c45.70583125 0 82.85044939 37.14461813 82.85044937 82.85044939V786.92935216c0 45.70583125-37.14461813 82.85044939-82.85044937 82.85044939z m27.61681646-888.70915371c0-15.18924905-12.42756741-27.61681646-27.61681646-27.61681647H185.70731351c-15.18924905 0-27.61681646 12.42756741-27.61681646 27.61681647V786.92935216c0 15.18924905 12.42756741 27.61681646 27.61681646 27.61681647h652.58537298c15.18924905 0 27.61681646-12.42756741 27.61681646-27.61681647v-805.85870432zM511.30957958 587.95018957c40.73480429-0.27616816 73.59881586 33.27826384 73.32264772 74.8415726 0.27616816 41.14905653-32.58784341 74.70348853-73.32264772 74.84157261-40.73480429-0.13808409-73.59881586-33.69251609-73.3226477-74.84157261-0.27616816-41.56330877 32.58784341-75.11774077 73.3226477-74.8415726zM748.81420115 334.98015078000003H274.21921027c-15.18924905 0-27.61681646-12.42756741-27.61681647-27.61681647s12.42756741-27.61681646 27.61681647-27.61681644h474.59499088c15.18924905 0 27.61681646 12.42756741 27.61681647 27.61681644s-12.28948332 27.61681646-27.61681647 27.61681647zM748.81420115 217.88484898000002H274.21921027c-15.18924905 0-27.61681646-12.42756741-27.61681647-27.61681645s12.42756741-27.61681646 27.61681647-27.61681647h474.59499088c15.18924905 0 27.61681646 12.42756741 27.61681647 27.61681647s-12.28948332 27.61681646-27.61681647 27.61681645zM748.81420115 102.03230394000002H274.21921027c-15.18924905 0-27.61681646-12.42756741-27.61681647-27.61681647s12.42756741-27.61681646 27.61681647-27.61681645h474.59499088c15.18924905 0 27.61681646 12.42756741 27.61681647 27.61681645s-12.28948332 27.61681646-27.61681647 27.61681647zM384.54839203 428.60115858c15.05116498-2.3474294 29.27382545 7.45654045 31.62125485 21.95536909 0 0.27616816 4.00443838 21.95536909 18.08901478 43.49648593 18.08901478 27.61681646 43.35840185 41.01097245 77.05091792 41.01097244 33.96868425 0 59.09998723-12.97990373 77.05091793-39.90629979 14.49882864-21.817285 18.22709886-44.73924267 18.22709887-44.73924267 1.93317715-13.2560719 13.80840823-22.78387358 27.3406483-22.78387356 1.24275675 0 2.62359757 0.13808409 3.86635429 0.27616815 15.05116498 2.07126124 25.54555523 15.46541722 23.47429401 29.96424586-0.55233633 3.31401797-5.3852792 33.27826384-25.131303 63.9329301-27.89298463 43.35840185-71.11330238 66.2803595-124.8280104 66.2803595-52.74811943 0-95.55418495-22.78387358-123.72333773-65.72802316-20.02219194-30.3784981-25.40747114-59.92849171-25.95980748-63.2425097-2.48551348-14.63691274 7.87079269-28.1691528 22.92195766-30.51658219z"  horiz-adv-x="1024" />

    
    <glyph glyph-name="close" unicode="&#58914;" d="M872.51618577 49.941123970000035l-343.88400078 343.66847991 343.65612029 343.87164116c7.03185082 7.03185082 7.03185082 18.43205452 0 25.45231819-7.03185082 7.03185082-18.43205452 7.03185082-25.45231819 0l-343.66847992-343.88400078-343.88400077 343.66847993c-7.03185082 7.03185082-18.43205452 7.03185082-25.4523182 0-7.03185082-7.03185082-7.03185082-18.43205452 0-25.46467781l343.88400079-343.66847993-343.65612031-343.87164115c-7.03185082-7.03185082-7.03185082-18.43205452 0-25.4523182 7.03185082-7.03185082 18.43205452-7.03185082 25.45231819 0l343.66847992 343.88400078 343.87164116-343.6561203c7.03185082-7.03185082 18.43205452-7.03185082 25.45231819 0 7.04421043 7.01949119 7.04421043 18.4196949 0.01235963 25.4523182z"  horiz-adv-x="1024" />

    
    <glyph glyph-name="menu-s" unicode="&#59139;" d="M128 682.66666667l768 0 0-64-768 0 0 64ZM128 426.66666667l768 0 0-64-768 0 0 64ZM128 170.66666667000004l768 0 0-64-768 0 0 64Z"  horiz-adv-x="1024" />

    
    <glyph glyph-name="arrow-down" unicode="&#59864;" d="M516.80115628 270.42857675000005L217.03787454 570.24364042 180.42833141 533.63409852l335.80322846-335.80322846 0.56959641 0.5178157 0.56959646-0.5178157 335.80322846 335.80322847L816.56443807 570.24364042l-299.76328179-299.81506367z"  horiz-adv-x="1024" />

    
    <glyph glyph-name="arrow-left" unicode="&#59865;" d="M363.034892 384.03973957l319.80273463-319.80273461-39.10541211-38.99494528L285.54210545 383.43216875999997l0.55233547 0.55233676-0.55233547 0.66280361L643.73221452 742.83741817l39.05017803-39.05017803-319.74750055-319.80273462z"  horiz-adv-x="1024" />

    
    <glyph glyph-name="arrow-right" unicode="&#59866;" d="M660.57847213 384.03973957l-319.80273462-319.80273461 39.05017934-38.99494528 358.19010907 358.19010908-0.55233676 0.55233676 0.55233676 0.66280361L379.82591685 742.83741817l-39.05017934-39.05017803 319.80273462-319.80273462z"  horiz-adv-x="1024" />

    
    <glyph glyph-name="arrow-up" unicode="&#59867;" d="M516.80115628 497.59415302l299.81506371-299.81506368 36.5577612 36.66132385L517.37075275 570.24364042l-0.51781453-0.51781568-0.62137835 0.51781569L180.42833141 234.44041318999996l36.60954313-36.60954313 299.81506368 299.76328296z"  horiz-adv-x="1024" />

    
    <glyph glyph-name="upload" unicode="&#58918;" d="M544 160a32 32 0 0 0-64 0V608a32 32 0 0 0 64 0zM800 64V224a32 32 0 0 0 64 0v-192a32 32 0 0 0-32-32H192a32 32 0 0 0-32 32V224a32 32 0 0 0 64 0v-160zM496 624.64l-152.32-166.4a32 32 0 1 0-47.36 43.52l176 192a32 32 0 0 0 47.36 0l176-192a32 32 0 0 0-47.36-43.52z"  horiz-adv-x="1024" />

    
    <glyph glyph-name="search" unicode="&#58912;" d="M950.599781-11.399374999999964l-152.053068 162.703639c61.631686 74.226538 95.526657 166.755931 95.526657 264.159332 0 228.509391-185.949063 414.458453-414.525991 414.458453-228.507344 0-414.456407-185.916317-414.456407-414.458453 0-228.542136 185.948039-414.456407 414.491199-414.456407 59.874669 0.027629 117.617791 12.526291 171.59617 37.110199 16.040325 7.302313 23.118534 26.207895 15.816221 42.214451-7.302313 16.070001-26.305109 23.176862-42.214451 15.811104-45.687552-20.783349-94.539166-31.339776-145.233756-31.369452-193.371102 0-350.689081 157.312862-350.689081 350.690104 0 193.344496 157.317978 350.692151 350.689081 350.692151 193.407941 0 350.754572-157.317978 350.754572-350.692151 0-91.030249-34.716686-177.273473-97.719602-242.860237-12.212136-12.687974-11.797697-32.873712 0.860601-45.084824 0.954745-0.924045 2.199085-1.27504 3.284813-2.072195 0.860601-1.274016 1.302669-2.739391 2.388397-3.88754l164.901701-176.447664c6.251378-6.728238 14.765285-10.104125 23.274076-10.104125 7.813966 0 15.626909 2.835581 21.782096 8.606005C961.921641-44.42760599999997 962.622606-24.248008000000027 950.599781-11.399374999999964L950.599781-11.399374999999964zM950.599781-11.399374999999964"  horiz-adv-x="1024" />

    
    <glyph glyph-name="hangye" unicode="&#58910;" d="M344.40533333 750.7057777800001l0-270.79111111L66.44622222 479.91466667l0 270.79111111L344.40533333 750.7057777800001M352.82488889 816.58311111L58.02666667 816.58311111c-31.744 0-57.45777778-25.71377778-57.45777778-57.45777778L0.56888889 471.60888889c0-31.744 25.71377778-57.45777778 57.45777778-57.45777778l294.79822222 0c31.744 0 57.45777778 25.71377778 57.45777778 57.45777778L410.28266667 759.12533333C410.39644445 790.86933333 384.56888889 816.58311111 352.82488889 816.58311111L352.82488889 816.58311111zM344.40533333 218.79466666999997l0-270.79111112L66.44622222-51.99644445000001l0 270.79111112L344.40533333 218.79466666999997M352.82488889 284.672L58.02666667 284.672c-31.744 0-57.45777778-25.71377778-57.45777778-57.45777778l0-287.51644444c0-31.744 25.71377778-57.45777778 57.45777778-57.45777778l294.79822222 0c31.744 0 57.45777778 25.71377778 57.45777778 57.45777778L410.28266667 227.10044445000005C410.39644445 258.84444444999997 384.56888889 284.672 352.82488889 284.672L352.82488889 284.672zM883.59822222 218.79466666999997l0-270.79111112L605.63911111-51.99644445000001l0 270.79111112L883.59822222 218.79466666999997M892.01777778 284.672L597.21955555 284.672c-31.744 0-57.45777778-25.71377778-57.45777777-57.45777778l0-287.51644444c0-31.744 25.71377778-57.45777778 57.45777777-57.45777778L892.01777778-117.75999999999999c31.744 0 57.45777778 25.71377778 57.45777777 57.45777778L949.47555555 227.10044445000005C949.47555555 258.84444444999997 923.76177778 284.672 892.01777778 284.672L892.01777778 284.672zM762.53866667 816.58311111l191.488-191.488L757.53244445 428.48711111 565.93066667 619.97511111 762.53866667 816.58311111M762.53866667 885.98755555c-14.67733333 0-29.46844445-5.57511111-40.61866667-16.8391111L513.47911111 660.70755555c-22.41422222-22.528-22.41422222-58.82311111 0-81.3511111L716.8 376.03555555c11.264-11.264 25.94133333-16.83911111 40.61866667-16.8391111 14.67733333 0 29.46844445 5.57511111 40.61866666 16.8391111l208.44088889 208.4408889c22.41422222 22.528 22.41422222 58.93688889 0 81.3511111L803.27111111 869.03466667C792.00711111 880.29866667 777.216 885.98755555 762.53866667 885.98755555L762.53866667 885.98755555z"  horiz-adv-x="1024" />

    
    <glyph glyph-name="zhiwei" unicode="&#59000;" d="M473.254542 21.562886l208.448757 258.12242-35.223144 25.649674-208.448756-258.12242zM604.212383 523.718469l-35.042512 25.649674-208.448756-258.122421 35.042512-25.649673zM390.344682 162.45546l35.223143-25.649674L634.016581 394.928206l-35.223143 25.649674zM318.814606 636.974422l409.672252 0.722526 45.880403 162.568355c3.973893 14.269889 0.903158 29.081672-8.670313 41.003351-9.392838 11.560416-23.662727 18.243782-39.016405 18.243782l-409.491621-0.541894c-15.534309 0-29.804198-6.863997-39.197036-18.605045-9.392838-11.921679-12.463574-27.094726-7.947787-41.364615l48.770507-162.02646z m1.26442 171.780561l-2.890104 2.890104 2.890104-2.890104z m38.835774-120.661845l-35.94567 119.578056 398.653731 0.541895-33.778091-119.578056-328.92997-0.541895z m-41.906509 123.913212l0.180631-0.180631-0.180631 0.180631zM731.738225 618.008114l-418.161933 1.625684L186.05045 60.037396l319.898395-151.730464L837.94955 61.482448l-106.211325 556.525666z m-44.615981-50.938084l91.21891-477.950961-272.211678-122.829424-259.567472 120.119951 109.823955 481.563592 330.736285-0.903158z"  horiz-adv-x="1024" />

    
    <glyph glyph-name="date" unicode="&#58906;" d="M511.66584718 893.70159559c-280.89316693 0-509.41168526-228.53132629-509.41168526-509.41168526s228.51851833-509.41168526 509.41168526-509.41168526 509.41168526 228.53132629 509.41168527 509.41168526S792.55901411 893.70159559 511.66584718 893.70159559zM511.66584718-46.749583359999974c-237.67686371 0-431.04065763 193.37660075-431.04065763 431.04065763S273.98898347 815.33056683 511.66584718 815.33056683 942.70533973 621.95396608 942.70533973 384.28990919 749.3427109-46.749583359999974 511.66584718-46.749583359999974zM459.41810631 671.65073522c0 21.63376583 17.53894115 39.18551381 39.18551382 39.18551381 21.64657379 0 39.18551381-17.55174798 39.18551381-39.18551381L537.78913507 410.41319709l182.86534543 0c21.64657379 0 39.18551381-17.55174798 39.18551381-39.18551382s-17.53894115-39.18551381-39.18551381-39.18551381L510.03350585 332.04216945999997c-27.95356046 0-50.61423445 22.66067513-50.61423446 50.61423445L459.41927139 671.65073522z"  horiz-adv-x="1024" />

    
    <glyph glyph-name="gongsi" unicode="&#60186;" d="M612.5497602 635.37440051h301.6492806c30.16492806 0 50.27488011-20.10995203 50.27488009-50.27488013v-603.29856118c0-30.16492806-20.10995203-50.27488011-50.27488009-50.27488009H109.8009592c-30.16492806 0-50.27488011 20.10995203-50.27488009 50.27488009V786.1990408c0 30.16492806 20.10995203 50.27488011 50.27488009 50.27488009h452.47392091c30.16492806 0 50.27488011-20.10995203 50.27488009-50.27488009v-150.82464029z m0-100.5497602v-502.74880099h251.37440048V534.82464031h-251.37440048zM160.07583932 735.92416068v-703.84832136h351.92416068V735.92416068H160.07583932z m150.8246403-100.54976017h50.27488007c30.16492806 0 50.27488011-20.10995203 50.27488011-50.27488013s-20.10995203-50.27488011-50.27488011-50.27488007h-50.27488007c-30.16492806 0-50.27488011 20.10995203-50.27488013 50.27488007s20.10995203 50.27488011 50.27488013 50.27488013z m0-201.0995204h50.27488007c30.16492806 0 50.27488011-20.10995203 50.27488011-50.27488011s-20.10995203-50.27488011-50.27488011-50.27488011h-50.27488007c-30.16492806 0-50.27488011 20.10995203-50.27488013 50.27488011s20.10995203 50.27488011 50.27488013 50.27488011z m0-201.09952042h50.27488007c30.16492806 0 50.27488011-20.10995203 50.27488011-50.27488007s-20.10995203-50.27488011-50.27488011-50.27488013h-50.27488007c-30.16492806 0-50.27488011 20.10995203-50.27488013 50.27488013s20.10995203 50.27488011 50.27488013 50.27488007z m402.19904076 201.09952042h50.27488013c30.16492806 0 50.27488011-20.10995203 50.2748801-50.27488011s-20.10995203-50.27488011-50.2748801-50.27488011h-50.27488013c-30.16492806 0-50.27488011 20.10995203-50.27488007 50.27488011s20.10995203 50.27488011 50.27488007 50.27488011z m0-201.09952042h50.27488013c30.16492806 0 50.27488011-20.10995203 50.2748801-50.27488007s-20.10995203-50.27488011-50.2748801-50.27488013h-50.27488013c-30.16492806 0-50.27488011 20.10995203-50.27488007 50.27488013s20.10995203 50.27488011 50.27488007 50.27488007z"  horiz-adv-x="1024" />

    
    <glyph glyph-name="money" unicode="&#58991;" d="M823.04 72.96000000000004A440.32 440.32 0 0 0 106.666667 213.33333300000004 440.32 440.32 0 0 0 341.333333 789.333333 440.32 440.32 0 0 0 917.333333 554.666667a439.466667 439.466667 0 0 0-94.293333-482.133334zM512 896a512 512 0 1 1 512-512A512 512 0 0 1 512 896zM701.44 491.093333h-166.826667l118.186667 117.76a35.84 35.84 0 1 1-50.773333 50.773334L512 567.893333 418.986667 660.906667a36.266667 36.266667 0 0 1-51.2-51.2l118.186666-118.186667H321.28a34.56 34.56 0 0 1-34.133333-34.56v-3.413333a34.133333 34.133333 0 0 1 34.133333-33.706667h154.453333v-64H353.28a34.56 34.56 0 0 1-33.706667-34.986667v-3.84a32.426667 32.426667 0 0 1 33.706667-32.853333h122.453333v-149.333333a35.84 35.84 0 0 1 72.106667 0v149.333333h121.6a34.133333 34.133333 0 0 1 34.986667 32.853333v3.84a35.84 35.84 0 0 1-34.986667 34.986667h-121.6V418.133333h153.6a34.133333 34.133333 0 0 1 34.986667 33.28v3.84a36.693333 36.693333 0 0 1-34.986667 35.84z"  horiz-adv-x="1024" />

    
    <glyph glyph-name="tj" unicode="&#58975;" d="M617.5 645.53333333l278.6-244.1L611.6 154.33333332999996 611.6 275.83333332999996l0 59.7-59.2-7.3c-12.3-1.5-250.9-32.4-443.4-158.8 9.4 27.7 21.8 57.3 38.3 86.7 79.6 142.1 215 214.1 402.4 214.1 4.6 0 9.3 0 14-0.1l53.7-1 0 53.7L617.4 645.53333333M564.7 761.83333333l0-239.1c-5 0.1-10.1 0.1-15 0.1-504.6 0-521.9-488.1-522-490.1 182.3 199.9 531.1 243 531.1 243l0-237.1 417.5 362.6L564.7 761.83333333 564.7 761.83333333zM27.7 32.83333332999996C27.7 32.83333332999996 27.7 32.83333332999996 27.7 32.83333332999996 27.7 32.83333332999996 27.7 32.83333332999996 27.7 32.83333332999996L27.7 32.83333332999996z"  horiz-adv-x="1024" />

    
    <glyph glyph-name="city" unicode="&#59128;" d="M512 304.35555545c-96.711111 0-170.666667 73.955556-170.666667 170.66666699s73.955556 170.666667 170.666667 170.66666601 170.666667-73.955556 170.666667-170.666666-73.955556-170.666667-170.666667-170.666667z m0 56.888889c62.57777801 0 113.77777801 51.2 113.77777801 113.777778s-51.2 113.77777801-113.77777801 113.777778-113.77777801-51.2-113.77777801-113.777778 51.2-113.77777801 113.77777801-113.777778zM512-93.86666654999999C244.62222201 122.31111145 113.77777801 310.04444445 113.77777801 475.02222245c0 244.62222199 187.733333 398.22222199 398.22222199 398.222222s398.22222199-153.6 398.22222199-398.22222201c0-164.97777801-130.844444-352.711111-398.22222199-568.88888899z m341.333333 568.88888899c0 199.111111-147.911111 341.333333-341.333333 341.33333301S170.666667 674.13333345 170.666667 475.02222245c0-136.533333 113.77777801-301.511111 341.333333-494.933334 227.555556 193.42222199 341.333333 358.4 341.333333 494.93333399z"  horiz-adv-x="1024" />

    
    <glyph glyph-name="apply" unicode="&#58926;" d="M346.94140625 337.06640625l-0.08789063-0.26367188c-0.08789063-0.43945313-0.26367188-0.87890625-0.61523437-1.49414062L345.88671875 334.78125c-0.3515625-0.43945313-0.52734375-0.703125-0.61523438-0.96679688L300.18359375 168.4921875c-2.28515625-8.4375 0.08789063-17.31445313 6.328125-23.73046875 4.5703125-4.39453125 10.8984375-6.85546875 17.31445313-6.85546875 2.109375 0 4.21875 0.26367188 6.32812499 0.79101563l166.28906251 44.82421875 0.26367187-0.08789063 0.3515625 0.08789063c0.703125 0.17578125 1.0546875 0.3515625 1.58203125 0.87890625l439.27734375 439.27734374c12.21679688 12.21679688 18.984375 29.1796875 18.984375 47.63671876 0 21.00585938-8.96484375 41.92382813-24.52148438 57.39257812l-41.57226562 41.57226563c-15.64453125 15.64453125-36.65039063 24.52148438-57.65625 24.52148437-18.36914063 0-35.24414063-6.76757813-47.63671875-18.984375L347.1171875 337.2421875 346.94140625 337.06640625zM856.61914063 736.00195313l41.57226562-41.57226563c5.00976563-5.00976563 7.91015625-11.68945313 7.91015625-18.36914063-0.26367188-5.9765625-2.19726563-10.8984375-5.88867188-14.58984375L853.80664063 615.15234375l-76.02539063 77.25585938 45.61523438 45.52734374 0 0C831.65820313 746.109375 847.12695313 745.23046875 856.61914063 736.00195313zM415.93554687 330.38671875l322.38281251 322.47070313 76.11328124-77.34375001L492.57617187 253.74609375 415.93554687 330.38671875zM358.10351562 196.52929687000005l26.19140626 96.67968751 70.22460937-70.3125L358.10351562 196.52929687000005zM925.17382813 486.12890625c-14.58984375 0-26.45507813-11.953125-26.45507813-26.71875l0-409.5703125c0-23.5546875-19.16015625-42.71484375-42.71484375-42.71484375L163.07421875 7.125c-23.5546875 0-42.71484375 19.16015625-42.71484375 42.71484375L120.359375 718.42382813c0 23.5546875 19.16015625 42.71484375 42.71484375 42.71484374l446.22070313 0c14.58984375 0 26.45507813 11.86523438 26.45507812 26.45507813 0 14.58984375-11.86523438 26.45507813-26.45507813 26.45507812l-450.87890624 0C108.14257812 814.04882813 67.18554687 773.1796875 67.18554687 722.81835938l1e-8-677.72460938c0-50.2734375 40.95703125-91.23046875 91.23046875-91.23046875l701.98242187 0c50.2734375 0 91.23046875 40.95703125 91.23046875 91.23046875L951.62890625 459.67382813C951.62890625 474.26367188 939.76367188 486.12890625 925.17382813 486.12890625z"  horiz-adv-x="1024" />

    
    <glyph glyph-name="more" unicode="&#58979;" d="M921.698544 346.951199l-566.082756 0c-20.748556 0-37.539988 16.790408-37.539988 37.539988 0 20.733207 16.791431 37.542035 37.539988 37.542035l566.082756 0c20.756743 0 37.546128-16.807804 37.546128-37.542035C959.244672 363.74160700000004 942.455287 346.951199 921.698544 346.951199L921.698544 346.951199zM921.698544 647.2751949999999l-566.082756 0c-20.748556 0-37.539988 16.808828-37.539988 37.541011 0 20.73116 16.791431 37.539988 37.539988 37.539988l566.082756 0c20.756743 0 37.546128-16.808828 37.546128-37.539988C959.244672 664.084023 942.455287 647.2751949999999 921.698544 647.2751949999999L921.698544 647.2751949999999zM136.509559 9.092330999999945c-41.464367 0-75.086116 33.616632-75.086116 75.075883 0 41.46539 33.621748 75.079976 75.086116 75.079976 41.460274 0 75.080999-33.615609 75.080999-75.079976C211.590558 42.70794000000001 177.969832 9.092330999999945 136.509559 9.092330999999945L136.509559 9.092330999999945zM136.509559 309.411211c-41.464367 0-75.086116 33.621748-75.086116 75.078952 0 41.467437 33.621748 75.083046 75.086116 75.083046 41.460274 0 75.080999-33.615609 75.080999-75.083046C211.590558 343.03398300000003 177.969832 309.411211 136.509559 309.411211L136.509559 309.411211zM136.509559 609.736231c-41.464367 0-75.086116 33.615609-75.086116 75.079976 0 41.46539 33.621748 75.082022 75.086116 75.082022 41.460274 0 75.080999-33.615609 75.080999-75.082022C211.590558 643.350816 177.969832 609.736231 136.509559 609.736231L136.509559 609.736231zM355.615788 121.71331799999996l566.082756 0c20.756743 0 37.546128-16.791431 37.546128-37.541011s-16.789385-37.541011-37.546128-37.541011l-566.082756 0c-20.748556 0-37.539988 16.791431-37.539988 37.541011S334.866209 121.71331799999996 355.615788 121.71331799999996L355.615788 121.71331799999996zM355.615788 121.71331799999996"  horiz-adv-x="1024" />

    
    <glyph glyph-name="w_zhiye" unicode="&#59009;" d="M383.616 604.288c1.536-4.736 7.808-7.808 12.544-7.808h117.248c4.736 0 9.344 3.072 12.544 7.808l92.16 151.68c1.536 4.736 1.536 9.344 0 14.08-3.072 4.736-6.272 6.272-10.88 6.272H314.752c-4.736 0-9.344-1.536-10.88-6.272-3.072-3.072-3.072-9.344-1.536-12.544l81.28-153.216zM547.2 551.04l112.512-300.032h54.784v64zM572.16 418.688l-282.88-282.88 50.048-48.384 256.256 256.256zM606.336 318.848L356.224 70.4l53.248-51.584 220.416 220.416zM538.112 523.264L311.424 296.576l-39.04-134.4c-1.536-3.072 0-6.272 0-7.808l289.152 289.152-23.424 79.744zM383.616 557.312l-9.344-32.768 42.24 42.24h-20.352c-6.272-0.128-11.008-4.736-12.544-9.472zM317.952 338.56L527.36 547.968l-3.072 7.808c-1.536 6.272-7.808 9.344-12.544 9.344h-70.4l-79.744-79.744-43.648-146.816zM642.048 212.864L427.904 0.256l35.968-35.968c3.072-3.072 6.272-4.736 9.344-4.736s6.272 1.536 9.344 4.736l175.104 170.368c3.072 3.072 4.736 9.344 3.072 14.08l-18.688 64.128z"  horiz-adv-x="1024" />

    
    <glyph glyph-name="tel" unicode="&#59079;" d="M512 11.946667000000048c-40.96 0-75.093333 34.133333-75.093333 75.093333s34.133333 75.093333 75.093333 75.093333 75.093333-34.133333 75.093333-75.093333S552.96 11.946667000000048 512 11.946667000000048zM512 124.58666700000003c-20.48 0-37.546667-17.066667-37.546667-37.546667s17.066667-37.546667 37.546667-37.546667c20.48 0 37.546667 17.066667 37.546667 37.546667S532.48 124.58666700000003 512 124.58666700000003zM679.253333-97.27999999999997c-3.413333 0-6.826667 0-10.24 3.413333-40.96 23.893333-109.226667 23.893333-109.226667 23.893333l0 0L276.48-69.97333300000003c-54.613333 0-98.986667 44.373333-98.986667 98.986667L177.493333 756.0533330000001c0 54.613333 44.373333 98.986667 98.986667 98.986667l471.04 0c54.613333 0 98.986667-44.373333 98.986667-98.986667l0-727.04c0-54.613333-44.373333-98.986667-98.986667-98.986667-10.24 0-17.066667 6.826667-17.066667 17.066667s6.826667 17.066667 17.066667 17.066667c34.133333 0 61.44 27.306667 61.44 61.44L808.96 756.0533330000001c0 34.133333-27.306667 61.44-61.44 61.44L276.48 817.493333c-34.133333 0-61.44-27.306667-61.44-61.44l0-727.04c0-34.133333 27.306667-61.44 61.44-61.44l283.306667 0c3.413333 0 78.506667 0 126.293333-30.72 10.24-6.826667 10.24-17.066667 6.826667-23.893333C692.906667-93.866667 686.08-97.27999999999997 679.253333-97.27999999999997zM590.506667 745.8133330000001l-153.6 0c-10.24 0-17.066667 6.826667-17.066667 17.066667s6.826667 17.066667 17.066667 17.066667l153.6 0c10.24 0 17.066667-6.826667 17.066667-17.066667C607.573333 756.0533330000001 600.746667 745.8133330000001 590.506667 745.8133330000001z"  horiz-adv-x="1024" />

    
    <glyph glyph-name="yzm" unicode="&#59164;" d="M537.5067936 409.68580373L537.5067936 572.7238592l110.26165227 0c11.78302933 0 21.33279573 9.5497664 21.33279573 21.33279573 0 11.78302933-9.5497664 21.33279573-21.33279573 21.33279574L537.5067936 615.38945173 537.5067936 734.8493984l110.26165227 0c11.78302933 0 21.33279573 9.5497664 21.33279573 21.33279573 0 11.78302933-9.5497664 21.33279573-21.33279573 21.33279574L537.5067936 777.51499093 537.5067936 832.9787328c0 11.78302933-9.5497664 21.33279573-21.33279573 21.33279573-11.78302933 0-21.33279573-9.5497664-21.33279574-21.33279573l0-423.292928c-128.85362453-10.865056-230.3885216-119.19252267-230.3885216-250.80880213 0-138.8017984 112.91952-251.7213184 251.7213184-251.7213184s251.7213184 112.91952 251.7213184 251.7213184C767.89531627 290.49328106999997 666.3604192 398.8207488 537.5067936 409.68580373zM516.17399787-50.178723200000036c-115.27830827 0-209.05681707 93.7785088-209.05681707 209.05681707 0 115.2739424 93.7785088 209.05681707 209.05681707 209.05681706s209.05681707-93.78287467 209.05681706-209.05681706C725.23081493 43.59978560000002 631.45230613-50.178723200000036 516.17399787-50.178723200000036z"  horiz-adv-x="1024" />

    
    <glyph glyph-name="toudi" unicode="&#58885;" d="M456.528125 299.06718750000005a29.416875 29.416875 0 0 0-20.8275 50.184375L877.716875 791.26875a29.416875 29.416875 0 0 0 41.5959375-41.595L477.2965625 307.65656249999995a29.29875 29.29875 0 0 0-20.7684375-8.589375zM650.208125-96a29.416875 29.416875 0 0 0-26.5340625 16.7090625L443.525 297.478125 48.2815625 495.924375a29.416875 29.416875 0 0 0 3.883125 54.185625l882.5034375 293.75625a29.3578125 29.3578125 0 1 0 37.24125-37.183125l-293.75625-882.5034375a29.416875 29.416875 0 0 0-26.0625-20.0625c-0.7059375-0.1171875-1.29375-0.1171875-1.8825-0.1171875zM138.003125 516.6928125l340.8815625-171.1471875c5.8246875-2.941875 10.5309375-7.70625 13.3546875-13.59L645.265625 11.840625000000045l252.219375 757.6003125-759.481875-252.75zM363.92375 55.32000000000005a29.416875 29.416875 0 0 0-28.828125 35.1825l46.3021875 231.33375a29.416875 29.416875 0 1 0 57.65625-11.53125l-32.3578125-161.615625 79.659375 53.0671875a29.416875 29.416875 0 0 0 32.595-48.9496875l-138.7884375-92.48625a29.0053125 29.0053125 0 0 0-16.2375-5.000625z"  horiz-adv-x="1044" />

    


  </font>
</defs>
</svg>
